<?xml version="1.0" encoding="utf-8"?>
<!-- Generator: Adobe Illustrator 15.1.0, SVG Export Plug-In . SVG Version: 6.00 Build 0)  -->
<!DOCTYPE svg PUBLIC "-//W3C//DTD SVG 1.1//EN" "http://www.w3.org/Graphics/SVG/1.1/DTD/svg11.dtd">
<svg version="1.1" id="Guage_Speed_Blue" xmlns="http://www.w3.org/2000/svg" xmlns:xlink="http://www.w3.org/1999/xlink" x="0px"
	 y="0px" width="204.458px" height="223px" viewBox="0 0 204.458 223" enable-background="new 0 0 204.458 223"
	 xml:space="preserve">
<g id="Group_8982" transform="translate(0 0)">
	<g id="Group_8942">
		<g id="Group_8941">
			<path id="Path_5249" fill="#0057A6" d="M65.561,29.5l-3.186,1.848l-1.848-3.186l3.122-1.848L65.561,29.5z"/>
			<path id="Path_5250" fill="#0057A6" d="M71.168,26.632l-3.249,1.593l-1.657-3.313l3.249-1.593L71.168,26.632z"/>
			<path id="Path_5251" fill="#0057A6" d="M76.967,24.084l-3.313,1.4l-1.465-3.377l3.377-1.465L76.967,24.084z"/>
			<path id="Path_5252" fill="#0057A6" d="M82.955,21.913l-3.441,1.211l-1.211-3.5l3.501-1.211L82.955,21.913z"/>
			<path id="Path_5253" fill="#0057A6" d="M89.072,20.197l-3.5,0.956l-0.956-3.568l3.5-0.956L89.072,20.197z"/>
			<path id="Path_5254" fill="#0057A6" d="M95.316,18.923l-3.632,0.7l-0.7-3.632l3.632-0.7L95.316,18.923z"/>
			<path id="Path_5255" fill="#0057A6" d="M101.56,18.036l-3.632,0.446l-0.446-3.632l3.632-0.51L101.56,18.036z"/>
			<path id="Path_5256" fill="#0057A6" d="M107.868,17.59l-3.632,0.191l-0.19-3.7l3.631-0.191L107.868,17.59z"/>
			<path id="Path_5257" fill="#0057A6" d="M114.239,17.526h-3.632v-3.7l3.7,0.064L114.239,17.526z"/>
			<path id="Path_5258" fill="#0057A6" d="M120.547,17.967l-3.633-0.319l0.319-3.632l3.632,0.255L120.547,17.967z"/>
			<path id="Path_5259" fill="#0057A6" d="M126.854,18.795l-3.632-0.51l0.573-3.7l3.631,0.573L126.854,18.795z"/>
			<path id="Path_5260" fill="#0057A6" d="M133.098,20.074l-3.568-0.765l0.766-3.632l3.567,0.765L133.098,20.074z"/>
			<path id="Path_5261" fill="#0057A6" d="M139.209,21.726l-3.5-1.019l1.02-3.568l3.5,1.019L139.209,21.726z"/>
			<path id="Path_5262" fill="#0057A6" d="M145.204,23.765l-3.44-1.215l1.274-3.5l3.44,1.274L145.204,23.765z"/>
			<path id="Path_5263" fill="#0057A6" d="M151.065,26.25l-3.313-1.465l1.465-3.377l3.313,1.465L151.065,26.25z"/>
			<path id="Path_5264" fill="#0057A6" d="M156.736,29.118l-3.249-1.657l1.721-3.313l3.248,1.72L156.736,29.118z"/>
			<path id="Path_5265" fill="#0057A6" d="M20.452,88.244l-0.828,3.5l-3.632-0.824l0.892-3.568L20.452,88.244z"/>
			<path id="Path_5266" fill="#0057A6" d="M22.172,82.191l-1.019,3.5l-3.568-1.083l1.083-3.5L22.172,82.191z"/>
			<path id="Path_5267" fill="#0057A6" d="M24.339,76.265l-1.274,3.377l-3.441-1.274l1.274-3.441L24.339,76.265z"/>
			<path id="Path_5268" fill="#0057A6" d="M26.951,70.404l-1.529,3.377l-3.377-1.593l1.529-3.313L26.951,70.404z"/>
			<path id="Path_5269" fill="#0057A6" d="M29.882,64.797l-1.72,3.249l-3.25-1.783l1.72-3.186L29.882,64.797z"/>
			<path id="Path_5270" fill="#0057A6" d="M33.261,59.445l-1.975,3.058l-3.122-1.975l1.975-3.122L33.261,59.445z"/>
			<path id="Path_5271" fill="#0057A6" d="M36.893,54.284l-2.166,2.931l-2.931-2.166l2.166-2.995L36.893,54.284z"/>
			<path id="Path_5272" fill="#0057A6" d="M40.968,49.378l-2.357,2.8l-2.868-2.421l2.421-2.8L40.968,49.378z"/>
			<path id="Path_5273" fill="#0057A6" d="M45.301,44.728l-2.549,2.676l-2.612-2.612l2.549-2.612L45.301,44.728z"/>
			<path id="Path_5274" fill="#0057A6" d="M49.952,40.459l-2.676,2.421l-2.485-2.74l2.74-2.421L49.952,40.459z"/>
			<path id="Path_5275" fill="#0057A6" d="M54.921,36.444l-2.867,2.294l-2.294-2.931l2.867-2.23L54.921,36.444z"/>
			<path id="Path_5276" fill="#0057A6" d="M60.085,32.812l-3,2.042l-2.1-3.058l3.058-2.039L60.085,32.812z"/>
			<path id="Path_5277" fill="#0057A6" d="M184.004,171.135l2.295-2.867l2.931,2.294l-2.294,2.867L184.004,171.135z"/>
			<path id="Path_5278" fill="#0057A6" d="M179.864,175.914l2.422-2.74l2.739,2.485l-2.485,2.74L179.864,175.914z"/>
			<path id="Path_5279" fill="#0057A6" d="M187.892,166.166l2.039-2.994l3.058,2.1l-2.039,2.995L187.892,166.166z"/>
			<path id="Path_5280" fill="#0057A6" d="M175.34,180.375l2.611-2.549l2.549,2.676l-2.611,2.549L175.34,180.375z"/>
			<path id="Path_5281" fill="#0057A6" d="M170.499,184.515l2.799-2.357l2.422,2.867l-2.801,2.357L170.499,184.515z"/>
			<path id="Path_5282" fill="#0057A6" d="M165.465,188.337l2.931-2.166l2.166,2.996l-2.931,2.166L165.465,188.337z"/>
			<path id="Path_5283" fill="#0057A6" d="M160.113,191.841l3.122-1.975l1.975,3.122l-3.121,1.976L160.113,191.841z"/>
			<path id="Path_5284" fill="#0057A6" d="M154.57,194.9l3.249-1.72l1.784,3.249l-3.25,1.72L154.57,194.9z"/>
			<path id="Path_5285" fill="#0057A6" d="M148.899,197.64l3.313-1.529l1.529,3.377l-3.313,1.529L148.899,197.64z"/>
			<path id="Path_5286" fill="#0057A6" d="M142.974,199.998l3.377-1.338l1.338,3.5l-3.44,1.273L142.974,199.998z"/>
			<path id="Path_5287" fill="#0057A6" d="M136.92,201.91l3.5-1.084l1.084,3.568l-3.5,1.083L136.92,201.91z"/>
			<path id="Path_5288" fill="#0057A6" d="M130.741,203.438l3.568-0.828l0.828,3.568l-3.568,0.827L130.741,203.438z"/>
			<path id="Path_5289" fill="#0057A6" d="M124.497,204.521l3.633-0.572l0.572,3.631l-3.632,0.573L124.497,204.521z"/>
			<path id="Path_5290" fill="#0057A6" d="M118.189,205.222l3.632-0.383l0.383,3.701l-3.701,0.318L118.189,205.222z"/>
			<path id="Path_5291" fill="#0057A6" d="M111.881,205.414l3.632-0.064l0.127,3.699l-3.7,0.064L111.881,205.414z"/>
			<path id="Path_5292" fill="#0057A6" d="M105.637,205.222l3.568,0.191l-0.127,3.699l-3.633-0.191L105.637,205.222z"/>
			<path id="Path_5293" fill="#0057A6" d="M99.202,204.585l3.632,0.445l-0.382,3.633l-3.632-0.379L99.202,204.585z"/>
			<path id="Path_5294" fill="#0057A6" d="M92.958,203.565l3.568,0.638l-0.637,3.631l-3.632-0.637L92.958,203.565z"/>
			<path id="Path_5295" fill="#0057A6" d="M86.778,202.1l3.5,0.892l-0.892,3.568l-3.5-0.893L86.778,202.1z"/>
			<path id="Path_5296" fill="#0057A6" d="M80.726,200.251l3.441,1.084l-1.147,3.567l-3.441-1.151L80.726,200.251z"/>
			<path id="Path_5297" fill="#0057A6" d="M74.736,197.958l3.441,1.338l-1.4,3.441l-3.379-1.339L74.736,197.958z"/>
			<path id="Path_5298" fill="#0057A6" d="M69.002,195.283l3.313,1.594l-1.593,3.313l-3.313-1.593L69.002,195.283z"/>
			<path id="Path_5299" fill="#0057A6" d="M63.459,192.224l3.186,1.848l-1.848,3.187l-3.186-1.784L63.459,192.224z"/>
			<path id="Path_5300" fill="#0057A6" d="M58.107,188.848l3.061,1.975l-2.039,3.122l-3.058-2.039L58.107,188.848z"/>
			<path id="Path_5301" fill="#0057A6" d="M53.01,185.025l2.931,2.23l-2.23,2.931l-2.931-2.229L53.01,185.025z"/>
			<path id="Path_5302" fill="#0057A6" d="M48.168,180.947l2.74,2.357l-2.421,2.8l-2.74-2.421L48.168,180.947z"/>
			<path id="Path_5303" fill="#0057A6" d="M43.644,176.487l2.612,2.612l-2.612,2.611l-2.612-2.611L43.644,176.487z"/>
			<path id="Path_5304" fill="#0057A6" d="M39.436,171.772l2.357,2.74l-2.74,2.421l-2.421-2.74L39.436,171.772z"/>
			<path id="Path_5305" fill="#0057A6" d="M35.489,166.739l2.23,2.931l-2.931,2.23l-2.23-2.931L35.489,166.739z"/>
			<path id="Path_5306" fill="#0057A6" d="M31.984,161.514l1.975,3.058l-3.058,2.039l-2.039-3.122L31.984,161.514z"/>
			<path id="Path_5307" fill="#0057A6" d="M28.735,156.035l1.848,3.187l-3.249,1.784l-1.785-3.187L28.735,156.035z"/>
			<path id="Path_5308" fill="#0057A6" d="M25.931,150.301l1.593,3.313l-3.313,1.593l-1.593-3.313L25.931,150.301z"/>
			<path id="Path_5309" fill="#0057A6" d="M23.51,144.439l1.338,3.439l-3.441,1.339l-1.337-3.378L23.51,144.439z"/>
			<path id="Path_5310" fill="#0057A6" d="M21.467,138.451l1.147,3.5l-3.568,1.082l-1.083-3.44L21.467,138.451z"/>
			<path id="Path_5311" fill="#0057A6" d="M19.815,132.333l0.892,3.5l-3.568,0.892l-0.892-3.5L19.815,132.333z"/>
			<path id="Path_5312" fill="#0057A6" d="M18.668,126.089l0.637,3.568l-3.632,0.7l-0.637-3.632L18.668,126.089z"/>
			<path id="Path_5313" fill="#0057A6" d="M17.84,119.782l0.446,3.632l-3.7,0.446l-0.382-3.7L17.84,119.782z"/>
			<path id="Path_5314" fill="#0057A6" d="M17.526,113.474l0.128,3.632l-3.7,0.19l-0.128-3.699L17.526,113.474z"/>
			<path id="Path_5315" fill="#0057A6" d="M17.585,107.102l-0.064,3.7l-3.7-0.127l0.064-3.7L17.585,107.102z"/>
			<path id="Path_5316" fill="#0057A6" d="M18.159,100.795l-0.382,3.632l-3.696-0.314l0.382-3.7L18.159,100.795z"/>
			<path id="Path_5317" fill="#0057A6" d="M19.05,94.487l-0.573,3.632l-3.632-0.573l0.573-3.632L19.05,94.487z"/>
			<path id="Path_5318" fill="#0172D8" d="M58.556,17.585l-3.186,1.848l-1.911-3.186l3.249-1.848L58.556,17.585z"/>
			<path id="Path_5319" fill="#0172D8" d="M62.057,23.574l-3.186,1.848l-1.848-3.186l3.187-1.911L62.057,23.574z"/>
			<path id="Path_5320" fill="#0172D8" d="M64.988,14.208l-3.313,1.657l-1.657-3.313l3.377-1.657L64.988,14.208z"/>
			<path id="Path_5321" fill="#0172D8" d="M68.11,20.388l-3.313,1.657l-1.657-3.313l3.313-1.657L68.11,20.388z"/>
			<path id="Path_5322" fill="#0172D8" d="M71.678,11.278l-3.44,1.465l-1.4-3.441l3.441-1.4L71.678,11.278z"/>
			<path id="Path_5323" fill="#0172D8" d="M74.354,17.649l-3.441,1.465l-1.401-3.442l3.441-1.4L74.354,17.649z"/>
			<path id="Path_5324" fill="#0172D8" d="M78.559,8.793l-3.568,1.211l-1.147-3.5l3.5-1.147L78.559,8.793z"/>
			<path id="Path_5325" fill="#0172D8" d="M80.725,15.351l-3.441,1.211l-1.211-3.5l3.5-1.211L80.725,15.351z"/>
			<path id="Path_5326" fill="#0172D8" d="M85.567,6.817l-3.632,0.956L80.98,4.205l3.632-0.956L85.567,6.817z"/>
			<path id="Path_5327" fill="#0172D8" d="M87.288,13.507l-3.568,0.956l-0.956-3.568l3.632-0.956L87.288,13.507z"/>
			<path id="Path_5328" fill="#0172D8" d="M92.64,5.289l-3.632,0.7l-0.7-3.568l3.632-0.764L92.64,5.289z"/>
			<path id="Path_5329" fill="#0172D8" d="M93.978,12.106l-3.632,0.7l-0.7-3.632l3.632-0.7L93.978,12.106z"/>
			<path id="Path_5330" fill="#0172D8" d="M99.903,4.269l-3.7,0.446l-0.51-3.632l3.7-0.446L99.903,4.269z"/>
			<path id="Path_5331" fill="#0172D8" d="M100.731,11.15l-3.7,0.446l-0.446-3.632l3.7-0.446L100.731,11.15z"/>
			<path id="Path_5332" fill="#0172D8" d="M107.167,3.764l-3.76,0.191l-0.191-3.7l3.701-0.191L107.167,3.764z"/>
			<path id="Path_5333" fill="#0172D8" d="M107.549,10.645l-3.7,0.255l-0.255-3.7l3.699-0.255L107.549,10.645z"/>
			<path id="Path_5334" fill="#0172D8" d="M114.435,3.7l-3.7-0.064V0h3.76L114.435,3.7z"/>
			<path id="Path_5335" fill="#0172D8" d="M114.303,10.64l-3.633-0.059v-3.7l3.701,0.064L114.303,10.64z"/>
			<path id="Path_5336" fill="#0172D8" d="M121.698,4.141l-3.699-0.255l0.254-3.7l3.76,0.255L121.698,4.141z"/>
			<path id="Path_5337" fill="#0172D8" d="M121.124,11.086l-3.699-0.319l0.318-3.7l3.7,0.319L121.124,11.086z"/>
			<path id="Path_5338" fill="#0172D8" d="M128.893,5.097l-3.633-0.51l0.511-3.7l3.7,0.573L128.893,5.097z"/>
			<path id="Path_5339" fill="#0172D8" d="M127.874,11.978l-3.631-0.573l0.51-3.632l3.699,0.51L127.874,11.978z"/>
			<path id="Path_5340" fill="#0172D8" d="M136.029,6.503l-3.632-0.765l0.766-3.632l3.699,0.828L136.029,6.503z"/>
			<path id="Path_5341" fill="#0172D8" d="M134.564,13.32l-3.632-0.828l0.828-3.568l3.568,0.765L134.564,13.32z"/>
			<path id="Path_5342" fill="#0172D8" d="M143.102,8.41l-3.632-1.019l1.019-3.568l3.633,1.02L143.102,8.41z"/>
			<path id="Path_5343" fill="#0172D8" d="M141.122,15.037l-3.5-0.956l1.02-3.568l3.5,1.019L141.122,15.037z"/>
			<path id="Path_5344" fill="#0172D8" d="M149.978,10.768l-3.5-1.274l1.211-3.441l3.5,1.274L149.978,10.768z"/>
			<path id="Path_5345" fill="#0172D8" d="M147.562,17.267l-3.44-1.215l1.273-3.5l3.439,1.274L147.562,17.267z"/>
			<path id="Path_5346" fill="#0172D8" d="M156.672,13.571l-3.377-1.465l1.466-3.377l3.377,1.465L156.672,13.571z"/>
			<path id="Path_5347" fill="#0172D8" d="M153.87,19.942l-3.377-1.465l1.465-3.441l3.377,1.529L153.87,19.942z"/>
			<path id="Path_5348" fill="#0172D8" d="M163.17,16.884l-3.313-1.72l1.721-3.313l3.313,1.72L163.17,16.884z"/>
			<path id="Path_5349" fill="#0172D8" d="M159.985,23.001l-3.313-1.72l1.72-3.249l3.313,1.72L159.985,23.001z"/>
			<g id="Group_8888" transform="translate(2.549 84.166)">
				<path id="Path_5350" fill="#0172D8" d="M4.4,0.892L3.572,4.46L0.004,3.632L0.832,0L4.4,0.892z"/>
				<path id="Path_5351" fill="#0172D8" d="M11.154,2.485l-0.828,3.568L6.758,5.225l0.828-3.632L11.154,2.485z"/>
			</g>
			<g id="Group_8889" transform="translate(4.333 77.03)">
				<path id="Path_5352" fill="#0172D8" d="M4.651,1.083L3.568,4.651L0,3.568L1.083,0L4.651,1.083z"/>
				<path id="Path_5353" fill="#0172D8" d="M11.277,3.122L10.194,6.69L6.626,5.607l1.083-3.568L11.277,3.122z"/>
			</g>
			<g id="Group_8890" transform="translate(6.69 69.958)">
				<path id="Path_5354" fill="#0172D8" d="M4.715,1.338L3.441,4.779L0,3.5L1.274,0L4.715,1.338z"/>
				<path id="Path_5355" fill="#0172D8" d="M11.214,3.823L9.876,7.264L6.435,5.926l1.338-3.441L11.214,3.823z"/>
			</g>
			<g id="Group_8891" transform="translate(9.43 63.077)">
				<path id="Path_5356" fill="#0172D8" d="M4.97,1.529L3.377,4.906L0,3.377L1.593,0L4.97,1.529z"/>
				<path id="Path_5357" fill="#0172D8" d="M11.214,4.46L9.685,7.773L6.308,6.244l1.593-3.377L11.214,4.46z"/>
			</g>
			<g id="Group_8892" transform="translate(12.743 56.387)">
				<path id="Path_5358" fill="#0172D8" d="M5.033,1.784L3.249,5.033L0,3.249L1.784,0L5.033,1.784z"/>
				<path id="Path_5359" fill="#0172D8" d="M11.086,5.097L9.302,8.346L6.053,6.562l1.784-3.249L11.086,5.097z"/>
			</g>
			<g id="Group_8893" transform="translate(16.438 49.952)">
				<path id="Path_5360" fill="#0172D8" d="M5.161,1.975L3.122,5.161L0,3.186L2.039,0L5.161,1.975z"/>
				<path id="Path_5361" fill="#0172D8" d="M10.962,5.734L8.987,8.856L5.865,6.881L7.84,3.759L10.962,5.734z"/>
			</g>
			<g id="Group_8894" transform="translate(20.58 43.835)">
				<path id="Path_5362" fill="#0172D8" d="M5.225,2.166l-2.23,2.995L0,2.995L2.23,0L5.225,2.166z"/>
				<path id="Path_5363" fill="#0172D8" d="M10.768,6.308L8.602,9.303l-2.995-2.23l2.23-2.995L10.768,6.308z"/>
			</g>
			<g id="Group_8895" transform="translate(25.167 37.973)">
				<path id="Path_5364" fill="#0172D8" d="M5.225,2.421l-2.357,2.8L0.001,2.864l2.421-2.867L5.225,2.421z"/>
				<path id="Path_5365" fill="#0172D8" d="M10.512,6.881l-2.357,2.8L5.288,7.324l2.421-2.8L10.512,6.881z"/>
			</g>
			<g id="Group_8896" transform="translate(30.137 32.494)">
				<path id="Path_5366" fill="#0172D8" d="M5.288,2.612L2.676,5.224L0,2.675l2.612-2.676L5.288,2.612z"/>
				<path id="Path_5367" fill="#0172D8" d="M10.195,7.454l-2.549,2.612L4.97,7.518l2.612-2.676L10.195,7.454z"/>
			</g>
			<g id="Group_8897" transform="translate(35.489 27.397)">
				<path id="Path_5368" fill="#0172D8" d="M5.225,2.74l-2.74,2.485L0,2.485L2.8,0L5.225,2.74z"/>
				<path id="Path_5369" fill="#0172D8" d="M9.876,7.901l-2.74,2.485l-2.485-2.8l2.74-2.421L9.876,7.901z"/>
			</g>
			<g id="Group_8898" transform="translate(41.159 22.618)">
				<path id="Path_5370" fill="#0172D8" d="M5.225,2.931L2.294,5.225L0,2.294L2.931,0L5.225,2.931z"/>
				<path id="Path_5371" fill="#0172D8" d="M9.494,8.41l-2.931,2.23l-2.23-2.867L7.2,5.479L9.494,8.41z"/>
			</g>
			<g id="Group_8899" transform="translate(47.212 18.286)">
				<path id="Path_5372" fill="#0172D8" d="M5.1,3.058l-3.058,2.1L0,2.1L3.058,0L5.1,3.058z"/>
				<path id="Path_5373" fill="#0172D8" d="M8.986,8.792l-2.995,2.1l-2.1-3.058l3.058-2.1L8.986,8.792z"/>
			</g>
			<g id="Group_8900" transform="translate(189.485 172.601)">
				<path id="Path_5374" fill="#0172D8" d="M5.416,7.199L7.71,4.269l2.867,2.294L8.283,9.494L5.416,7.199z"/>
				<path id="Path_5375" fill="#0172D8" d="M0,2.867L2.23,0l2.931,2.23L2.867,5.161L0,2.867z"/>
			</g>
			<g id="Group_8901" transform="translate(184.961 177.825)">
				<path id="Path_5376" fill="#0172D8" d="M5.097,7.391l2.485-2.74l2.74,2.484l-2.486,2.74L5.097,7.391z"/>
				<path id="Path_5377" fill="#0172D8" d="M0,2.74l2.484-2.739l2.74,2.484l-2.484,2.74L0,2.74z"/>
			</g>
			<g id="Group_8902" transform="translate(193.562 167.057)">
				<path id="Path_5378" fill="#0172D8" d="M5.733,7.008L7.834,3.95l3.058,2.039L8.726,9.11L5.733,7.008z"/>
				<path id="Path_5379" fill="#0172D8" d="M0,3.058L2.101,0l3.057,2.101l-2.1,3.057L0,3.058z"/>
			</g>
			<g id="Group_8903" transform="translate(180.119 182.795)">
				<path id="Path_5380" fill="#0172D8" d="M4.779,7.581l2.677-2.549l2.549,2.612l-2.676,2.612L4.779,7.581z"/>
				<path id="Path_5381" fill="#0172D8" d="M0.001,2.548l2.676-2.549l2.549,2.677L2.549,5.225L0.001,2.548z"/>
			</g>
			<g id="Group_8904" transform="translate(174.958 187.446)">
				<path id="Path_5382" fill="#0172D8" d="M4.46,7.709l2.867-2.421l2.356,2.867l-2.867,2.357L4.46,7.709z"/>
				<path id="Path_5383" fill="#0172D8" d="M0,2.357L2.8,0l2.421,2.867L2.354,5.223L0,2.357z"/>
			</g>
			<g id="Group_8905" transform="translate(169.542 191.778)">
				<path id="Path_5384" fill="#0172D8" d="M4.078,7.773l2.996-2.23L9.24,8.538l-2.996,2.23L4.078,7.773z"/>
				<path id="Path_5385" fill="#0172D8" d="M-0.001,2.166L2.996,0l2.166,2.995L2.165,5.161L-0.001,2.166z"/>
			</g>
			<g id="Group_8906" transform="translate(163.808 195.729)">
				<path id="Path_5386" fill="#0172D8" d="M3.694,7.772l3.187-1.975L8.857,8.92L5.67,10.959L3.694,7.772z"/>
				<path id="Path_5387" fill="#0172D8" d="M0,1.976L3.122,0l1.975,3.058L1.976,5.097L0,1.976z"/>
			</g>
			<g id="Group_8907" transform="translate(157.883 199.233)">
				<path id="Path_5388" fill="#0172D8" d="M3.313,7.899l3.25-1.783l1.783,3.249l-3.313,1.784L3.313,7.899z"/>
				<path id="Path_5389" fill="#0172D8" d="M0,1.784L3.248,0l1.785,3.249l-3.25,1.784L0,1.784z"/>
			</g>
			<g id="Group_8908" transform="translate(151.766 202.419)">
				<path id="Path_5390" fill="#0172D8" d="M2.867,7.836l3.377-1.528l1.529,3.313l-3.377,1.592L2.867,7.836z"/>
				<path id="Path_5391" fill="#0172D8" d="M0,1.529L3.313,0l1.529,3.377L1.529,4.907L0,1.529z"/>
			</g>
			<g id="Group_8909" transform="translate(145.395 205.158)">
				<path id="Path_5392" fill="#0172D8" d="M2.421,7.773l3.5-1.338l1.338,3.5l-3.5,1.273L2.421,7.773z"/>
				<path id="Path_5393" fill="#0172D8" d="M0,1.274L3.441,0l1.338,3.441L1.338,4.779L0,1.274z"/>
			</g>
			<g id="Group_8910" transform="translate(138.896 207.452)">
				<path id="Path_5394" fill="#0172D8" d="M2.039,7.71l3.5-1.084l1.083,3.568l-3.568,1.083L2.039,7.71z"/>
				<path id="Path_5395" fill="#0172D8" d="M0,1.083l3.567-1.082l1.084,3.567L1.083,4.651L0,1.083z"/>
			</g>
			<g id="Group_8911" transform="translate(132.334 209.363)">
				<path id="Path_5396" fill="#0172D8" d="M1.529,7.582l3.632-0.828l0.828,3.568L2.357,11.15L1.529,7.582z"/>
				<path id="Path_5397" fill="#0172D8" d="M0,0.828L3.568,0l0.828,3.568L0.764,4.396L0,0.828z"/>
			</g>
			<g id="Group_8912" transform="translate(125.58 210.765)">
				<path id="Path_5398" fill="#0172D8" d="M1.083,7.453l3.701-0.637l0.572,3.7l-3.7,0.573L1.083,7.453z"/>
				<path id="Path_5399" fill="#0172D8" d="M0.001,0.572L3.631,0l0.638,3.631l-3.7,0.637L0.001,0.572z"/>
			</g>
			<g id="Group_8913" transform="translate(118.826 211.785)">
				<path id="Path_5400" fill="#0172D8" d="M0.637,7.2l3.699-0.319l0.319,3.633l-3.7,0.382L0.637,7.2z"/>
				<path id="Path_5401" fill="#0172D8" d="M0.001,0.318L3.632,0l0.383,3.633l-3.7,0.382L0.001,0.318z"/>
			</g>
			<g id="Group_8914" transform="translate(112.009 212.294)">
				<path id="Path_5402" fill="#0172D8" d="M0.126,7.008l3.76-0.127l0.064,3.699l-3.76,0.127L0.126,7.008z"/>
				<path id="Path_5403" fill="#0172D8" d="M-0.001,0.064L3.7,0L3.764,3.7l-3.7,0.064L-0.001,0.064z"/>
			</g>
			<g id="Group_8915" transform="translate(104.809 212.167)">
				<path id="Path_5404" fill="#0172D8" d="M0.191,6.881l3.631,0.19l-0.127,3.7l-3.699-0.191L0.191,6.881z"/>
				<path id="Path_5405" fill="#0172D8" d="M0.51,0l3.633,0.127L4.016,3.827L0.315,3.7L0.51,0z"/>
			</g>
			<g id="Group_8916" transform="translate(97.227 211.466)">
				<path id="Path_5406" fill="#0172D8" d="M0.382,6.881l3.7,0.445L3.7,11.028L0,10.58L0.382,6.881z"/>
				<path id="Path_5407" fill="#0172D8" d="M1.211,0l3.632,0.445L4.461,4.078l-3.7-0.383L1.211,0z"/>
			</g>
			<g id="Group_8917" transform="translate(89.773 210.383)">
				<path id="Path_5408" fill="#0172D8" d="M0.7,6.817l3.632,0.638l-0.637,3.632l-3.7-0.638L0.7,6.817z"/>
				<path id="Path_5409" fill="#0172D8" d="M1.911-0.001l3.632,0.638L4.906,4.269L1.274,3.632L1.911-0.001z"/>
			</g>
			<g id="Group_8918" transform="translate(82.446 208.79)">
				<path id="Path_5410" fill="#0172D8" d="M0.892,6.754l3.632,0.892l-0.892,3.567L0,10.322L0.892,6.754z"/>
				<path id="Path_5411" fill="#0172D8" d="M2.612,0.001L6.18,0.892L5.288,4.524L1.72,3.631L2.612,0.001z"/>
			</g>
			<g id="Group_8919" transform="translate(75.246 206.815)">
				<path id="Path_5412" fill="#0172D8" d="M1.147,6.563L4.715,7.71l-1.147,3.568L0,10.063L1.147,6.563z"/>
				<path id="Path_5413" fill="#0172D8" d="M3.313,0l3.5,1.147l-1.147,3.5L2.166,3.5L3.313,0z"/>
			</g>
			<g id="Group_8920" transform="translate(68.237 204.394)">
				<path id="Path_5414" fill="#0172D8" d="M1.338,6.436l3.441,1.338l-1.338,3.439L0,9.813L1.338,6.436z"/>
				<path id="Path_5415" fill="#0172D8" d="M3.949,0l3.44,1.338l-1.4,3.441l-3.44-1.338L3.949,0z"/>
			</g>
			<g id="Group_8921" transform="translate(61.356 201.527)">
				<path id="Path_5416" fill="#0172D8" d="M1.593,6.244L4.97,7.838L3.377,11.15L0,9.557L1.593,6.244z"/>
				<path id="Path_5417" fill="#0172D8" d="M4.651,0l3.313,1.594L6.371,4.906L3.058,3.312L4.651,0z"/>
			</g>
			<g id="Group_8922" transform="translate(54.73 198.277)">
				<path id="Path_5418" fill="#0172D8" d="M1.848,5.989l3.249,1.848l-1.848,3.187L0,9.175L1.848,5.989z"/>
				<path id="Path_5419" fill="#0172D8" d="M5.289,0l3.186,1.784L6.691,5.033L3.442,3.185L5.289,0z"/>
			</g>
			<g id="Group_8923" transform="translate(48.422 194.582)">
				<path id="Path_5420" fill="#0172D8" d="M2.039,5.798L5.1,7.837l-2.039,3.058L0.003,8.856L2.039,5.798z"/>
				<path id="Path_5421" fill="#0172D8" d="M5.862,0l3.061,2.039L6.884,5.097L3.826,3.058L5.862,0z"/>
			</g>
			<g id="Group_8924" transform="translate(42.306 190.504)">
				<path id="Path_5422" fill="#0172D8" d="M2.294,5.542l2.931,2.23l-2.23,2.932L0,8.474L2.294,5.542z"/>
				<path id="Path_5423" fill="#0172D8" d="M6.499-0.001L9.43,2.294L7.2,5.225L4.269,2.931L6.499-0.001z"/>
			</g>
			<g id="Group_8925" transform="translate(36.572 186.108)">
				<path id="Path_5424" fill="#0172D8" d="M2.485,5.225l2.74,2.421l-2.421,2.8l-2.8-2.484L2.485,5.225z"/>
				<path id="Path_5425" fill="#0172D8" d="M7.008,0l2.8,2.421L7.387,5.222L4.587,2.8L7.008,0z"/>
			</g>
			<g id="Group_8926" transform="translate(31.156 181.393)">
				<path id="Path_5426" fill="#0172D8" d="M2.676,4.842l2.612,2.612l-2.612,2.611L0,7.454L2.676,4.842z"/>
				<path id="Path_5427" fill="#0172D8" d="M7.582,0l2.612,2.612L7.582,5.224L4.97,2.548L7.582,0z"/>
			</g>
			<g id="Group_8927" transform="translate(26.123 176.296)">
				<path id="Path_5428" fill="#0172D8" d="M2.8,4.524l2.485,2.801l-2.8,2.42L0,6.946L2.8,4.524z"/>
				<path id="Path_5429" fill="#0172D8" d="M8.088,0l2.357,2.8l-2.74,2.421l-2.421-2.8L8.088,0z"/>
			</g>
			<g id="Group_8928" transform="translate(21.535 170.944)">
				<path id="Path_5430" fill="#0172D8" d="M2.931,4.141l2.23,2.994L2.23,9.366L0,6.371L2.931,4.141z"/>
				<path id="Path_5431" fill="#0172D8" d="M8.474,0l2.23,2.931l-2.995,2.23l-2.23-2.932L8.474,0z"/>
			</g>
			<g id="Group_8929" transform="translate(17.266 165.273)">
				<path id="Path_5432" fill="#0172D8" d="M3.122,3.823l2.039,3.058L2.039,8.92L0,5.798L3.122,3.823z"/>
				<path id="Path_5433" fill="#0172D8" d="M8.92,0l1.975,3.122L7.837,5.098L5.798,2.039L8.92,0z"/>
			</g>
			<g id="Group_8930" transform="translate(13.444 159.412)">
				<path id="Path_5434" fill="#0172D8" d="M3.249,3.377l1.784,3.25L1.847,8.411L0,5.161L3.249,3.377z"/>
				<path id="Path_5435" fill="#0172D8" d="M9.302,0l1.784,3.187L7.9,5.034L6.052,1.785L9.302,0z"/>
			</g>
			<g id="Group_8931" transform="translate(10.067 153.295)">
				<path id="Path_5436" fill="#0172D8" d="M3.377,2.996L4.97,6.308L1.657,7.964L0.001,4.587L3.377,2.996z"/>
				<path id="Path_5437" fill="#0172D8" d="M9.621-0.001l1.593,3.313L7.901,4.906L6.308,1.593L9.621-0.001z"/>
			</g>
			<g id="Group_8932" transform="translate(7.2 146.988)">
				<path id="Path_5438" fill="#0172D8" d="M3.441,2.549l1.338,3.5L1.402,7.387l-1.4-3.44L3.441,2.549z"/>
				<path id="Path_5439" fill="#0172D8" d="M9.876,0l1.338,3.441l-3.441,1.4L6.435,1.4L9.876,0z"/>
			</g>
			<g id="Group_8933" transform="translate(4.779 140.553)">
				<path id="Path_5440" fill="#0172D8" d="M3.5,2.103l1.147,3.568l-3.5,1.146L0,3.25L3.5,2.103z"/>
				<path id="Path_5441" fill="#0172D8" d="M10.062,0l1.147,3.5l-3.5,1.147l-1.147-3.5L10.062,0z"/>
			</g>
			<g id="Group_8934" transform="translate(2.803 133.99)">
				<path id="Path_5442" fill="#0172D8" d="M3.568,1.657l0.956,3.567L0.892,6.117L0,2.549L3.568,1.657z"/>
				<path id="Path_5443" fill="#0172D8" d="M10.322,0l0.892,3.568L7.646,4.46L6.754,0.892L10.322,0z"/>
			</g>
			<g id="Group_8935" transform="translate(1.338 127.3)">
				<path id="Path_5444" fill="#0172D8" d="M3.7,1.211l0.637,3.632L0.705,5.48l-0.7-3.632L3.7,1.211z"/>
				<path id="Path_5445" fill="#0172D8" d="M10.517,0l0.637,3.632L7.522,4.269l-0.7-3.632L10.517,0z"/>
			</g>
			<g id="Group_8936" transform="translate(0.446 120.546)">
				<path id="Path_5446" fill="#0172D8" d="M3.632,0.702l0.446,3.699l-3.7,0.446l-0.382-3.759L3.632,0.702z"/>
				<path id="Path_5447" fill="#0172D8" d="M10.513,0l0.446,3.632l-3.7,0.446l-0.382-3.7L10.513,0z"/>
			</g>
			<g id="Group_8937" transform="translate(0 113.729)">
				<path id="Path_5448" fill="#0172D8" d="M3.7,0.255l0.127,3.7l-3.7,0.19L0,0.388L3.7,0.255z"/>
				<path id="Path_5449" fill="#0172D8" d="M10.577,0l0.191,3.7l-3.7,0.127l-0.127-3.7L10.577,0z"/>
			</g>
			<g id="Group_8938" transform="translate(0 106.593)">
				<path id="Path_5450" fill="#0172D8" d="M3.759,0.127l-0.127,3.7L0,3.763l0.064-3.759L3.759,0.127z"/>
				<path id="Path_5451" fill="#0172D8" d="M10.704,0.318l-0.127,3.7l-3.7-0.127l0.127-3.7L10.704,0.318z"/>
			</g>
			<g id="Group_8939" transform="translate(0.319 99.075)">
				<path id="Path_5452" fill="#0172D8" d="M4.014,0.382l-0.319,3.7l-3.7-0.382L0.314,0L4.014,0.382z"/>
				<path id="Path_5453" fill="#0172D8" d="M10.895,1.02l-0.319,3.7l-3.7-0.319l0.382-3.7L10.895,1.02z"/>
			</g>
			<g id="Group_8940" transform="translate(1.147 91.62)">
				<path id="Path_5454" fill="#0172D8" d="M4.269,0.637L3.632,4.269L0,3.7L0.637,0L4.269,0.637z"/>
				<path id="Path_5455" fill="#0172D8" d="M11.086,1.784l-0.573,3.632l-3.7-0.637L7.45,1.147L11.086,1.784z"/>
			</g>
		</g>
	</g>
</g>
</svg>
