<svg id="Guage_Speed_White" xmlns="http://www.w3.org/2000/svg" xmlns:xlink="http://www.w3.org/1999/xlink" width="204.458" height="222.999" viewBox="0 0 204.458 222.999">
  <defs>
    <clipPath id="clip-path">
      <path id="Path_5456" data-name="Path 5456" d="M397.618,310a89.518,89.518,0,1,0,89.518,89.518A89.515,89.515,0,0,0,397.618,310Zm0,170.753a81.235,81.235,0,1,1,81.235-81.235A81.248,81.248,0,0,1,397.618,480.753Z" transform="translate(-308.1 -310)" opacity="0.15"/>
    </clipPath>
    <clipPath id="clip-path-33">
      <path id="Path_5488" data-name="Path 5488" d="M397.618,310a89.518,89.518,0,1,0,89.518,89.518A89.515,89.515,0,0,0,397.618,310Zm0,168.2A78.686,78.686,0,1,1,476.3,399.518,78.692,78.692,0,0,1,397.618,478.2Z" transform="translate(-308.1 -310)" opacity="0.4"/>
    </clipPath>
  </defs>
  <line id="Line_137" data-name="Line 137" y1="25.804" x2="13.444" transform="translate(160.738 11.787)" fill="none" stroke="#fff" stroke-miterlimit="10" stroke-width="2" opacity="0.15"/>
  <g id="Group_8982" data-name="Group 8982" transform="translate(0 0)">
    <g id="Group_8942" data-name="Group 8942">
      <g id="Group_8879" data-name="Group 8879" transform="translate(138.259 42.879)" opacity="0.4">
        <g id="Group_8878" data-name="Group 8878">
          <path id="Path_5236" data-name="Path 5236" d="M489.9,347.688l1.593-3.823-1.4-.573.191-.51.573.191a1.583,1.583,0,0,0,.51.064.688.688,0,0,0,.446-.191,1.382,1.382,0,0,0,.382-.446l.51.191-2.23,5.352Z" transform="translate(-489.9 -342.4)" fill="#fff"/>
          <path id="Path_5237" data-name="Path 5237" d="M494.892,346.287l.382-.573a1.491,1.491,0,0,1,.446-.446,1.388,1.388,0,0,1,.51-.319,1.048,1.048,0,0,1,.637-.064,1.7,1.7,0,0,1,.765.191,1.627,1.627,0,0,1,.637.446,2.58,2.58,0,0,1,.319.573,1.764,1.764,0,0,1,.064.573,2.264,2.264,0,0,1-.127.637c-.064.191-.127.446-.191.637s-.191.382-.255.573a2.587,2.587,0,0,1-.319.573l-.382.573a1.488,1.488,0,0,1-.446.446,1.387,1.387,0,0,1-.51.319,1.048,1.048,0,0,1-.637.064,1.92,1.92,0,0,1-.765-.191,1.626,1.626,0,0,1-.637-.446,1.669,1.669,0,0,1-.319-.573,1.762,1.762,0,0,1-.064-.573,2.266,2.266,0,0,1,.127-.637c.064-.191.127-.446.191-.637s.191-.382.255-.573A2.578,2.578,0,0,1,494.892,346.287Zm.064,1.529a1.7,1.7,0,0,0-.191.765,1.324,1.324,0,0,0,.064.7.987.987,0,0,0,.51.51.923.923,0,0,0,.7.064,1.5,1.5,0,0,0,.573-.382,2.287,2.287,0,0,0,.446-.637,5.889,5.889,0,0,0,.319-.637,3.108,3.108,0,0,0,.191-.446,4.387,4.387,0,0,0,.191-.51c.064-.191.064-.319.127-.51v-.446a.688.688,0,0,0-.191-.446.652.652,0,0,0-.382-.319,1.5,1.5,0,0,0-.51-.127,1.182,1.182,0,0,0-.446.127,1.69,1.69,0,0,0-.382.319c-.127.127-.191.255-.319.382a1.6,1.6,0,0,0-.255.446c-.064.127-.127.319-.191.446C495.147,347.37,495.019,347.561,494.956,347.816Z" transform="translate(-491.388 -343.292)" fill="#fff"/>
          <path id="Path_5238" data-name="Path 5238" d="M501.519,349.674a3.525,3.525,0,0,1,.382-.51,2.948,2.948,0,0,1,.446-.446.949.949,0,0,1,.573-.255,1.964,1.964,0,0,1,.637-.064,1.568,1.568,0,0,1,.7.255,1.5,1.5,0,0,1,.573.51,2.582,2.582,0,0,1,.319.573,1.964,1.964,0,0,1,.064.637,2.263,2.263,0,0,1-.127.637,2.662,2.662,0,0,1-.255.637c-.127.191-.191.382-.319.573s-.191.382-.319.573a3.53,3.53,0,0,1-.382.51,2.94,2.94,0,0,1-.446.446,1.905,1.905,0,0,1-.51.255,1.962,1.962,0,0,1-.637.064,1.567,1.567,0,0,1-.7-.255,2.494,2.494,0,0,1-.637-.51,2.578,2.578,0,0,1-.319-.573,1.963,1.963,0,0,1-.064-.637,2.264,2.264,0,0,1,.127-.637,2.658,2.658,0,0,1,.255-.637c.127-.191.191-.382.318-.573A2.585,2.585,0,0,1,501.519,349.674Zm-.064,1.529a4.851,4.851,0,0,0-.255.7,1.31,1.31,0,0,0,0,.7,1.178,1.178,0,0,0,.446.573.981.981,0,0,0,.7.127,1.667,1.667,0,0,0,.573-.319c.191-.191.319-.382.51-.573a5.6,5.6,0,0,1,.382-.637,1.334,1.334,0,0,1,.255-.382c.064-.127.127-.319.191-.446a1.2,1.2,0,0,0,.128-.51,1.246,1.246,0,0,0,.064-.446,1.18,1.18,0,0,0-.127-.446.653.653,0,0,0-.382-.319.766.766,0,0,0-.51-.127,1.084,1.084,0,0,0-.446.064,1.333,1.333,0,0,0-.382.255,1.691,1.691,0,0,0-.319.382,2.7,2.7,0,0,0-.318.446c-.064.127-.191.255-.255.382A1.959,1.959,0,0,1,501.456,351.2Z" transform="translate(-493.746 -344.577)" fill="#fff"/>
          <path id="Path_5239" data-name="Path 5239" d="M507.883,353.42a1.717,1.717,0,0,1,.446-.51,1.533,1.533,0,0,1,.51-.382,2.263,2.263,0,0,1,.573-.255,1.079,1.079,0,0,1,.637,0,1.72,1.72,0,0,1,.7.319,2.313,2.313,0,0,1,.573.51,2.263,2.263,0,0,1,.255.573,1.081,1.081,0,0,1,0,.637c-.064.191-.127.446-.191.637a2.58,2.58,0,0,1-.319.573,2.581,2.581,0,0,0-.319.573,3.526,3.526,0,0,1-.382.51,1.718,1.718,0,0,1-.446.51,1.532,1.532,0,0,1-.51.382,2.266,2.266,0,0,1-.573.255,1.08,1.08,0,0,1-.637,0,2.2,2.2,0,0,1-.7-.319,2.313,2.313,0,0,1-.573-.51,2.266,2.266,0,0,1-.255-.573,1.08,1.08,0,0,1,0-.637c.064-.191.128-.382.191-.637a2.583,2.583,0,0,1,.319-.573,2.581,2.581,0,0,0,.319-.573A2.087,2.087,0,0,1,507.883,353.42Zm-.191,1.529a3.421,3.421,0,0,0-.319.7,2.611,2.611,0,0,0-.064.7.811.811,0,0,0,.446.573,1.068,1.068,0,0,0,.7.191,1.214,1.214,0,0,0,.637-.319,1.5,1.5,0,0,0,.51-.573,4.49,4.49,0,0,1,.446-.573c.064-.127.191-.255.255-.382s.191-.319.255-.446.127-.319.191-.446a1.245,1.245,0,0,0,.064-.446,1.181,1.181,0,0,0-.127-.446,1.08,1.08,0,0,0-.382-.382.847.847,0,0,0-.446-.191,1.084,1.084,0,0,0-.446.064,1.33,1.33,0,0,0-.382.255l-.382.382c-.127.127-.191.255-.319.382a1.331,1.331,0,0,0-.255.382A4.473,4.473,0,0,0,507.692,354.949Z" transform="translate(-495.969 -345.965)" fill="#fff"/>
        </g>
      </g>
      <g id="Group_8881" data-name="Group 8881" transform="translate(62.057 49.84)" opacity="0.4">
        <g id="Group_8880" data-name="Group 8880">
          <path id="Path_5240" data-name="Path 5240" d="M374.569,367.187l-2.74-3.058-1.147,1.019-.382-.382.382-.382a1.6,1.6,0,0,0,.255-.446,1.4,1.4,0,0,0,.064-.51.724.724,0,0,0-.191-.51l.382-.319,3.823,4.269Z" transform="translate(-370.3 -356.691)" fill="#fff"/>
          <path id="Path_5241" data-name="Path 5241" d="M375.737,361.377a2.586,2.586,0,0,1-.319-.573,2.264,2.264,0,0,1-.255-.573,1.963,1.963,0,0,1-.064-.637,1.028,1.028,0,0,1,.191-.573,4.123,4.123,0,0,1,.51-.573,1.915,1.915,0,0,1,.7-.382,2.169,2.169,0,0,1,.637-.064,1.028,1.028,0,0,1,.573.191,3.538,3.538,0,0,1,.51.382,2.945,2.945,0,0,1,.446.446c.127.191.319.319.446.51s.255.319.382.51a2.583,2.583,0,0,1,.319.573c.064.191.191.382.255.573a1.765,1.765,0,0,1,.064.573,1.028,1.028,0,0,1-.191.573,4.126,4.126,0,0,1-.51.573,1.914,1.914,0,0,1-.7.382,2.167,2.167,0,0,1-.637.064,1.028,1.028,0,0,1-.573-.191,1.533,1.533,0,0,1-.51-.382,2.946,2.946,0,0,1-.446-.446c-.127-.191-.319-.319-.446-.51C375.992,361.7,375.865,361.5,375.737,361.377Zm1.4.573a4.118,4.118,0,0,0,.573.51,2.66,2.66,0,0,0,.637.255,1.062,1.062,0,0,0,.7-.255.775.775,0,0,0,.382-.637,2.614,2.614,0,0,0-.064-.7,1.913,1.913,0,0,0-.382-.7c-.127-.191-.319-.382-.446-.573a1.688,1.688,0,0,0-.319-.382,1.691,1.691,0,0,1-.319-.382,1.686,1.686,0,0,0-.382-.319.578.578,0,0,0-.446-.191.544.544,0,0,0-.446,0,1.349,1.349,0,0,0-.446.191,1.686,1.686,0,0,0-.319.382,1.083,1.083,0,0,0-.064.446,1.182,1.182,0,0,0,.127.446,1.6,1.6,0,0,0,.255.446c.064.127.191.319.255.446.127.127.191.255.319.382A2.123,2.123,0,0,0,377.139,361.95Z" transform="translate(-372.042 -355.021)" fill="#fff"/>
          <path id="Path_5242" data-name="Path 5242" d="M381.682,356.686a2.585,2.585,0,0,1-.319-.573c-.064-.191-.128-.382-.191-.637a1.079,1.079,0,0,1,0-.637,2.264,2.264,0,0,1,.255-.573,2.434,2.434,0,0,1,.573-.573,2.195,2.195,0,0,1,.7-.319,1.08,1.08,0,0,1,.637,0,2.261,2.261,0,0,1,.573.255c.191.127.319.255.51.382a3.644,3.644,0,0,1,.446.51,3.525,3.525,0,0,0,.382.51l.382.573a2.583,2.583,0,0,1,.319.573c.064.191.127.382.191.637a1.08,1.08,0,0,1,0,.637,2.264,2.264,0,0,1-.255.573,2.432,2.432,0,0,1-.573.573,2.2,2.2,0,0,1-.7.319,1.08,1.08,0,0,1-.637,0,2.265,2.265,0,0,1-.573-.255c-.191-.127-.319-.255-.51-.382a3.644,3.644,0,0,1-.446-.51,3.536,3.536,0,0,0-.382-.51Zm1.4.764c.191.191.319.382.51.573a1.993,1.993,0,0,0,.637.319.759.759,0,0,0,.7-.191,1.177,1.177,0,0,0,.446-.573,1.325,1.325,0,0,0-.064-.7,3.411,3.411,0,0,0-.319-.7,5.6,5.6,0,0,0-.382-.637c-.064-.127-.191-.255-.255-.382-.127-.127-.191-.255-.319-.382l-.382-.382a1.335,1.335,0,0,0-.382-.255,1.085,1.085,0,0,0-.446-.064.688.688,0,0,0-.446.191.849.849,0,0,0-.319.382.921.921,0,0,0-.127.446,1.084,1.084,0,0,0,.064.446c.064.127.127.319.191.446s.191.319.255.446.191.255.255.382A2.385,2.385,0,0,0,383.084,357.45Z" transform="translate(-374.228 -353.325)" fill="#fff"/>
        </g>
      </g>
      <g id="Group_8883" data-name="Group 8883" transform="translate(39.503 125.452)" opacity="0.4">
        <g id="Group_8882" data-name="Group 8882">
          <path id="Path_5243" data-name="Path 5243" d="M334.9,474.485l4.014-.892-.319-1.465.51-.127.191.573a2.774,2.774,0,0,0,.255.446,1.688,1.688,0,0,0,.382.319.851.851,0,0,0,.573.064l.127.51-5.607,1.274Z" transform="translate(-334.9 -472)" fill="#fff"/>
          <path id="Path_5244" data-name="Path 5244" d="M339.38,478.127c.191-.064.446-.064.637-.127h.637a1.028,1.028,0,0,1,.573.191c.191.064.319.255.51.446a2.358,2.358,0,0,1,.319.7,1.627,1.627,0,0,1,.064.765,1.076,1.076,0,0,1-.191.637,2.77,2.77,0,0,1-.382.446,1.67,1.67,0,0,1-.573.319,1.909,1.909,0,0,1-.637.255c-.191.064-.446.127-.637.191s-.446.127-.637.191-.446.064-.637.128h-.637a1.027,1.027,0,0,1-.573-.191c-.191-.064-.319-.255-.446-.382a2.357,2.357,0,0,1-.319-.7,1.627,1.627,0,0,1-.064-.765,1.076,1.076,0,0,1,.191-.637,2.768,2.768,0,0,1,.382-.446,2.234,2.234,0,0,1,.51-.319,1.907,1.907,0,0,1,.637-.255c.191-.064.446-.127.637-.191A1.907,1.907,0,0,1,339.38,478.127Zm-1.147,1.083a2.355,2.355,0,0,0-.7.319,1.133,1.133,0,0,0-.446.51.876.876,0,0,0-.064.7.81.81,0,0,0,.446.573,1.284,1.284,0,0,0,.7.191,3.1,3.1,0,0,0,.765-.064c.255-.064.51-.127.7-.191a4.069,4.069,0,0,1,.446-.128c.191-.064.319-.127.51-.191a1.027,1.027,0,0,0,.446-.255,1.689,1.689,0,0,0,.382-.319l.191-.382c.064-.128,0-.319,0-.51a1.027,1.027,0,0,0-.255-.446,1.332,1.332,0,0,0-.382-.255,1.084,1.084,0,0,0-.446-.064,1.4,1.4,0,0,0-.51.064,1.5,1.5,0,0,0-.51.127,4.043,4.043,0,0,0-.446.127C338.742,479.083,338.488,479.147,338.233,479.211Z" transform="translate(-335.429 -474.177)" fill="#fff"/>
        </g>
      </g>
      <g id="Group_8885" data-name="Group 8885" transform="translate(98.82 179.354)" opacity="0.4">
        <g id="Group_8884" data-name="Group 8884">
          <path id="Path_5245" data-name="Path 5245" d="M428.765,562.271l.7-4.078L428,557.938l.064-.573a1.764,1.764,0,0,0,.573.064,1.242,1.242,0,0,0,.51-.064,1.028,1.028,0,0,0,.446-.255,1.006,1.006,0,0,0,.319-.51l.51.064-.956,5.671Z" transform="translate(-428 -556.6)" fill="#fff"/>
        </g>
      </g>
      <g id="Group_8887" data-name="Group 8887" transform="translate(167.284 146.733)" opacity="0.4">
        <g id="Group_8886" data-name="Group 8886">
          <path id="Path_5246" data-name="Path 5246" d="M536.567,516.2c-.191-.127-.319-.318-.51-.446-.127-.191-.255-.319-.382-.51a1.028,1.028,0,0,1-.191-.573,2.123,2.123,0,0,1,0-.637,3.41,3.41,0,0,1,.319-.7,2.427,2.427,0,0,1,.573-.573,2.258,2.258,0,0,1,.573-.255h.637c.191.064.382.127.637.191a2.582,2.582,0,0,1,.573.319l.573.382c.191.128.319.255.51.382s.319.319.51.446a1.537,1.537,0,0,1,.382.51,1.028,1.028,0,0,1,.191.573,2.125,2.125,0,0,1,0,.637,2.593,2.593,0,0,1-.382.7,2.428,2.428,0,0,1-.573.573,2.262,2.262,0,0,1-.573.255H538.8c-.255,0-.382-.127-.637-.191a2.582,2.582,0,0,1-.573-.319,3.54,3.54,0,0,1-.51-.382C536.886,516.514,536.758,516.323,536.567,516.2Zm1.529.255a3.418,3.418,0,0,0,.7.319,1.325,1.325,0,0,0,.7.064.927.927,0,0,0,.573-.382.759.759,0,0,0,.191-.7,1.906,1.906,0,0,0-.255-.637,4.127,4.127,0,0,0-.51-.573,3.492,3.492,0,0,0-.573-.446c-.127-.064-.255-.191-.382-.255a1.028,1.028,0,0,0-.446-.255,3.128,3.128,0,0,1-.446-.191,1.084,1.084,0,0,0-.446-.064,1.182,1.182,0,0,0-.446.127,1.69,1.69,0,0,0-.382.318.688.688,0,0,0-.191.446,1.085,1.085,0,0,0,.064.446,3.654,3.654,0,0,0,.255.446c.127.128.191.255.319.382a1.688,1.688,0,0,0,.382.319,1.335,1.335,0,0,0,.382.255A2.082,2.082,0,0,1,538.1,516.45Z" transform="translate(-535.456 -507.976)" fill="#fff"/>
          <path id="Path_5247" data-name="Path 5247" d="M545.446,513.3l.7.446a1.806,1.806,0,0,1,.573.637.943.943,0,0,1,0,.828l-.319-.255V514.7c0-.064-.064-.191-.064-.255-.064-.064-.064-.127-.128-.191s-.127-.064-.191-.128l-.255.382L545,514Z" transform="translate(-538.919 -508.267)" fill="#fff"/>
          <path id="Path_5248" data-name="Path 5248" d="M546.015,509.032l-3.5-2.166-.765,1.274-.446-.318a1.9,1.9,0,0,0,.255-.51,1.5,1.5,0,0,0,.127-.51,1.4,1.4,0,0,0-.064-.51,1.142,1.142,0,0,0-.318-.446l.255-.446,4.906,2.994Z" transform="translate(-537.576 -505.4)" fill="#fff"/>
        </g>
      </g>
      <g id="Group_8941" data-name="Group 8941">
        <path id="Path_5249" data-name="Path 5249" d="M372.933,319.586l-3.186,1.848-1.848-3.186,3.122-1.848Z" transform="translate(-307.372 -290.086)" fill="#fff" opacity="0.4"/>
        <path id="Path_5250" data-name="Path 5250" d="M381.806,315.013l-3.249,1.593-1.657-3.313,3.249-1.593Z" transform="translate(-310.638 -288.381)" fill="#fff" opacity="0.4"/>
        <path id="Path_5251" data-name="Path 5251" d="M390.979,310.941l-3.313,1.4-1.465-3.377,3.377-1.465Z" transform="translate(-314.012 -286.857)" fill="#fff" opacity="0.4"/>
        <path id="Path_5252" data-name="Path 5252" d="M400.451,307.5l-3.441,1.211-1.211-3.5L399.3,304Z" transform="translate(-317.496 -285.587)" fill="#fff" opacity="0.4"/>
        <path id="Path_5253" data-name="Path 5253" d="M410.16,304.768l-3.5.956-.956-3.568,3.5-.956Z" transform="translate(-321.088 -284.571)" fill="#fff" opacity="0.4"/>
        <path id="Path_5254" data-name="Path 5254" d="M420.033,302.732l-3.632.7-.7-3.632,3.632-.7Z" transform="translate(-324.717 -283.809)" fill="#fff" opacity="0.4"/>
        <path id="Path_5255" data-name="Path 5255" d="M429.978,301.3l-3.632.446-.446-3.632,3.632-.51Z" transform="translate(-328.418 -283.264)" fill="#fff" opacity="0.4"/>
        <path id="Path_5256" data-name="Path 5256" d="M440.023,300.6l-3.632.191-.191-3.7,3.632-.191Z" transform="translate(-332.155 -283.01)" fill="#fff" opacity="0.4"/>
        <path id="Path_5257" data-name="Path 5257" d="M450.132,300.5H446.5v-3.7l3.7.064Z" transform="translate(-335.893 -282.974)" fill="#fff" opacity="0.4"/>
        <path id="Path_5258" data-name="Path 5258" d="M460.032,301.05l-3.632-.319.319-3.632,3.632.255Z" transform="translate(-339.485 -283.083)" fill="#fff" opacity="0.4"/>
        <path id="Path_5259" data-name="Path 5259" d="M469.932,302.205l-3.632-.51.573-3.7,3.632.573Z" transform="translate(-343.078 -283.41)" fill="#fff" opacity="0.4"/>
        <path id="Path_5260" data-name="Path 5260" d="M479.768,304.1l-3.568-.765.765-3.632,3.568.765Z" transform="translate(-346.67 -284.026)" fill="#fff" opacity="0.4"/>
        <path id="Path_5261" data-name="Path 5261" d="M489.4,306.587l-3.5-1.019L486.919,302l3.5,1.019Z" transform="translate(-350.19 -284.861)" fill="#fff" opacity="0.4"/>
        <path id="Path_5262" data-name="Path 5262" d="M498.841,309.715,495.4,308.5l1.274-3.5,3.441,1.274Z" transform="translate(-353.637 -285.95)" fill="#fff" opacity="0.4"/>
        <path id="Path_5263" data-name="Path 5263" d="M508.113,313.542l-3.313-1.465,1.465-3.377,3.313,1.465Z" transform="translate(-357.048 -287.292)" fill="#fff" opacity="0.4"/>
        <path id="Path_5264" data-name="Path 5264" d="M517.049,317.97l-3.249-1.657L515.52,313l3.249,1.72Z" transform="translate(-360.313 -288.852)" fill="#fff" opacity="0.4"/>
        <path id="Path_5265" data-name="Path 5265" d="M302.46,413.092l-.828,3.5L298,415.768l.892-3.568Z" transform="translate(-282.008 -324.848)" fill="#fff" opacity="0.4"/>
        <path id="Path_5266" data-name="Path 5266" d="M305.087,403.483l-1.019,3.5L300.5,405.9l1.083-3.5Z" transform="translate(-282.915 -321.292)" fill="#fff" opacity="0.4"/>
        <path id="Path_5267" data-name="Path 5267" d="M308.415,394.038l-1.274,3.377-3.441-1.274,1.274-3.441Z" transform="translate(-284.076 -317.773)" fill="#fff" opacity="0.4"/>
        <path id="Path_5268" data-name="Path 5268" d="M312.406,384.729l-1.529,3.377-3.377-1.593,1.529-3.313Z" transform="translate(-285.455 -314.325)" fill="#fff" opacity="0.4"/>
        <path id="Path_5269" data-name="Path 5269" d="M316.97,375.82l-1.72,3.249L312,377.286l1.72-3.186Z" transform="translate(-287.088 -311.023)" fill="#fff" opacity="0.4"/>
        <path id="Path_5270" data-name="Path 5270" d="M322.2,367.239l-1.975,3.058-3.122-1.975,1.975-3.122Z" transform="translate(-288.939 -307.794)" fill="#fff" opacity="0.4"/>
        <path id="Path_5271" data-name="Path 5271" d="M327.9,359.03l-2.166,2.931-2.931-2.166,2.166-2.995Z" transform="translate(-291.007 -304.746)" fill="#fff" opacity="0.4"/>
        <path id="Path_5272" data-name="Path 5272" d="M334.225,351.221l-2.357,2.8L329,351.6l2.421-2.8Z" transform="translate(-293.257 -301.843)" fill="#fff" opacity="0.4"/>
        <path id="Path_5273" data-name="Path 5273" d="M341.061,343.849l-2.549,2.676-2.612-2.612,2.549-2.612Z" transform="translate(-295.76 -299.121)" fill="#fff" opacity="0.4"/>
        <path id="Path_5274" data-name="Path 5274" d="M348.361,337.04l-2.676,2.421-2.485-2.74,2.74-2.421Z" transform="translate(-298.409 -296.581)" fill="#fff" opacity="0.4"/>
        <path id="Path_5275" data-name="Path 5275" d="M356.161,330.667l-2.867,2.294L351,330.03l2.867-2.23Z" transform="translate(-301.24 -294.223)" fill="#fff" opacity="0.4"/>
        <path id="Path_5276" data-name="Path 5276" d="M364.3,324.858,361.3,326.9l-2.1-3.058,3.058-2.039Z" transform="translate(-304.215 -292.046)" fill="#fff" opacity="0.4"/>
        <path id="Path_5277" data-name="Path 5277" d="M561.7,542.067l2.294-2.867,2.931,2.294-2.294,2.867Z" transform="translate(-377.695 -370.932)" fill="#fff" opacity="0.4"/>
        <path id="Path_5278" data-name="Path 5278" d="M555.2,549.64l2.421-2.74,2.74,2.485-2.485,2.74Z" transform="translate(-375.336 -373.726)" fill="#fff" opacity="0.4"/>
        <path id="Path_5279" data-name="Path 5279" d="M567.8,534.195l2.039-2.995,3.058,2.1-2.039,2.995Z" transform="translate(-379.908 -368.029)" fill="#fff" opacity="0.4"/>
        <path id="Path_5280" data-name="Path 5280" d="M548.1,556.749l2.612-2.549,2.549,2.676-2.612,2.549Z" transform="translate(-372.76 -376.375)" fill="#fff" opacity="0.4"/>
        <path id="Path_5281" data-name="Path 5281" d="M540.5,563.357,543.3,561l2.421,2.867-2.8,2.357Z" transform="translate(-370.002 -378.842)" fill="#fff" opacity="0.4"/>
        <path id="Path_5282" data-name="Path 5282" d="M532.6,569.466l2.931-2.166,2.166,2.995-2.931,2.166Z" transform="translate(-367.135 -381.128)" fill="#fff" opacity="0.4"/>
        <path id="Path_5283" data-name="Path 5283" d="M524.2,575.075l3.122-1.975,1.975,3.122-3.122,1.975Z" transform="translate(-364.087 -383.233)" fill="#fff" opacity="0.4"/>
        <path id="Path_5284" data-name="Path 5284" d="M515.5,580.02l3.249-1.72,1.784,3.249-3.25,1.72Z" transform="translate(-360.93 -385.12)" fill="#fff" opacity="0.4"/>
        <path id="Path_5285" data-name="Path 5285" d="M506.6,584.429l3.313-1.529,1.529,3.377-3.313,1.529Z" transform="translate(-357.701 -386.789)" fill="#fff" opacity="0.4"/>
        <path id="Path_5286" data-name="Path 5286" d="M497.3,588.238l3.377-1.338,1.338,3.5-3.441,1.274Z" transform="translate(-354.326 -388.241)" fill="#fff" opacity="0.4"/>
        <path id="Path_5287" data-name="Path 5287" d="M487.8,591.383l3.5-1.083,1.083,3.568-3.5,1.083Z" transform="translate(-350.879 -389.474)" fill="#fff" opacity="0.4"/>
        <path id="Path_5288" data-name="Path 5288" d="M478.1,593.928l3.568-.828.828,3.568-3.568.828Z" transform="translate(-347.359 -390.49)" fill="#fff" opacity="0.4"/>
        <path id="Path_5289" data-name="Path 5289" d="M468.3,595.773l3.632-.573.573,3.632-3.632.573Z" transform="translate(-343.803 -391.252)" fill="#fff" opacity="0.4"/>
        <path id="Path_5290" data-name="Path 5290" d="M458.4,596.982l3.632-.382.382,3.7-3.7.319Z" transform="translate(-340.211 -391.76)" fill="#fff" opacity="0.4"/>
        <path id="Path_5291" data-name="Path 5291" d="M448.5,597.464l3.632-.064.127,3.7-3.7.064Z" transform="translate(-336.619 -392.051)" fill="#fff" opacity="0.4"/>
        <path id="Path_5292" data-name="Path 5292" d="M438.591,597.2l3.568.191-.127,3.7L438.4,600.9Z" transform="translate(-332.954 -391.978)" fill="#fff" opacity="0.4"/>
        <path id="Path_5293" data-name="Path 5293" d="M428.382,596.2l3.632.446-.382,3.632L428,599.9Z" transform="translate(-329.18 -391.615)" fill="#fff" opacity="0.4"/>
        <path id="Path_5294" data-name="Path 5294" d="M418.4,594.6l3.568.637-.637,3.632-3.632-.637Z" transform="translate(-325.442 -391.035)" fill="#fff" opacity="0.4"/>
        <path id="Path_5295" data-name="Path 5295" d="M408.592,592.3l3.5.892-.892,3.568-3.5-.892Z" transform="translate(-321.814 -390.2)" fill="#fff" opacity="0.4"/>
        <path id="Path_5296" data-name="Path 5296" d="M398.947,589.4l3.441,1.083-1.147,3.568L397.8,592.9Z" transform="translate(-318.221 -389.148)" fill="#fff" opacity="0.4"/>
        <path id="Path_5297" data-name="Path 5297" d="M389.438,585.8l3.441,1.338-1.4,3.441L388.1,589.24Z" transform="translate(-314.702 -387.841)" fill="#fff" opacity="0.4"/>
        <path id="Path_5298" data-name="Path 5298" d="M380.293,581.6l3.313,1.593-1.593,3.313-3.313-1.593Z" transform="translate(-311.291 -386.317)" fill="#fff" opacity="0.4"/>
        <path id="Path_5299" data-name="Path 5299" d="M371.448,576.8l3.186,1.848-1.848,3.186-3.186-1.784Z" transform="translate(-307.989 -384.576)" fill="#fff" opacity="0.4"/>
        <path id="Path_5300" data-name="Path 5300" d="M362.939,571.5,366,573.475l-2.039,3.122-3.058-2.039Z" transform="translate(-304.832 -382.652)" fill="#fff" opacity="0.4"/>
        <path id="Path_5301" data-name="Path 5301" d="M354.83,565.5l2.931,2.23-2.23,2.931-2.931-2.23Z" transform="translate(-301.82 -380.475)" fill="#fff" opacity="0.4"/>
        <path id="Path_5302" data-name="Path 5302" d="M347.121,559.1l2.74,2.357-2.421,2.8-2.74-2.421Z" transform="translate(-298.953 -378.153)" fill="#fff" opacity="0.4"/>
        <path id="Path_5303" data-name="Path 5303" d="M339.912,552.1l2.612,2.612-2.612,2.612-2.612-2.612Z" transform="translate(-296.268 -375.613)" fill="#fff" opacity="0.4"/>
        <path id="Path_5304" data-name="Path 5304" d="M333.2,544.7l2.357,2.74-2.74,2.421-2.421-2.74Z" transform="translate(-293.764 -372.928)" fill="#fff" opacity="0.4"/>
        <path id="Path_5305" data-name="Path 5305" d="M326.931,536.8l2.23,2.931-2.931,2.23L324,539.03Z" transform="translate(-291.442 -370.061)" fill="#fff" opacity="0.4"/>
        <path id="Path_5306" data-name="Path 5306" d="M321.322,528.6l1.975,3.058-3.058,2.039-2.039-3.122Z" transform="translate(-289.338 -367.086)" fill="#fff" opacity="0.4"/>
        <path id="Path_5307" data-name="Path 5307" d="M316.186,520l1.848,3.186-3.249,1.784L313,521.784Z" transform="translate(-287.451 -363.965)" fill="#fff" opacity="0.4"/>
        <path id="Path_5308" data-name="Path 5308" d="M311.713,511l1.593,3.313-3.313,1.593-1.593-3.313Z" transform="translate(-285.782 -360.699)" fill="#fff" opacity="0.4"/>
        <path id="Path_5309" data-name="Path 5309" d="M307.84,501.8l1.338,3.44-3.441,1.338L304.4,503.2Z" transform="translate(-284.33 -357.361)" fill="#fff" opacity="0.4"/>
        <path id="Path_5310" data-name="Path 5310" d="M304.6,492.4l1.147,3.5-3.568,1.083-1.083-3.441Z" transform="translate(-283.133 -353.95)" fill="#fff" opacity="0.4"/>
        <path id="Path_5311" data-name="Path 5311" d="M301.968,482.8l.892,3.5-3.568.892-.892-3.5Z" transform="translate(-282.153 -350.467)" fill="#fff" opacity="0.4"/>
        <path id="Path_5312" data-name="Path 5312" d="M300.132,473l.637,3.568-3.632.7-.637-3.632Z" transform="translate(-281.464 -346.91)" fill="#fff" opacity="0.4"/>
        <path id="Path_5313" data-name="Path 5313" d="M298.832,463.1l.446,3.632-3.7.446-.382-3.7Z" transform="translate(-280.992 -343.318)" fill="#fff" opacity="0.4"/>
        <path id="Path_5314" data-name="Path 5314" d="M298.3,453.2l.128,3.632-3.7.191-.128-3.7Z" transform="translate(-280.774 -339.726)" fill="#fff" opacity="0.4"/>
        <path id="Path_5315" data-name="Path 5315" d="M298.359,443.127l-.064,3.7-3.7-.127.064-3.7Z" transform="translate(-280.774 -336.025)" fill="#fff" opacity="0.4"/>
        <path id="Path_5316" data-name="Path 5316" d="M299.078,433.082l-.382,3.632L295,436.4l.382-3.7Z" transform="translate(-280.919 -332.287)" fill="#fff" opacity="0.4"/>
        <path id="Path_5317" data-name="Path 5317" d="M300.405,423.073l-.573,3.632-3.632-.573.573-3.632Z" transform="translate(-281.355 -328.586)" fill="#fff" opacity="0.4"/>
        <path id="Path_5318" data-name="Path 5318" d="M361.9,300.886l-3.186,1.848-1.911-3.186,3.249-1.848Z" transform="translate(-303.344 -283.301)" fill="#fff" opacity="0.4"/>
        <path id="Path_5319" data-name="Path 5319" d="M367.433,310.249l-3.186,1.848-1.848-3.186L365.586,307Z" transform="translate(-305.376 -286.675)" fill="#fff" opacity="0.4"/>
        <path id="Path_5320" data-name="Path 5320" d="M372.07,295.513l-3.313,1.657-1.657-3.313,3.377-1.657Z" transform="translate(-307.082 -281.305)" fill="#fff" opacity="0.4"/>
        <path id="Path_5321" data-name="Path 5321" d="M376.97,305.213l-3.313,1.657L372,303.557l3.313-1.657Z" transform="translate(-308.86 -284.825)" fill="#fff" opacity="0.4"/>
        <path id="Path_5322" data-name="Path 5322" d="M382.642,290.877l-3.44,1.465-1.4-3.441,3.441-1.4Z" transform="translate(-310.964 -279.599)" fill="#fff" opacity="0.4"/>
        <path id="Path_5323" data-name="Path 5323" d="M386.842,300.877l-3.441,1.465L382,298.9l3.441-1.4Z" transform="translate(-312.488 -283.228)" fill="#fff" opacity="0.4"/>
        <path id="Path_5324" data-name="Path 5324" d="M393.515,286.941l-3.568,1.211-1.147-3.5,3.5-1.147Z" transform="translate(-314.956 -278.148)" fill="#fff" opacity="0.4"/>
        <path id="Path_5325" data-name="Path 5325" d="M396.951,297.2l-3.441,1.211-1.211-3.5,3.5-1.211Z" transform="translate(-316.226 -281.849)" fill="#fff" opacity="0.4"/>
        <path id="Path_5326" data-name="Path 5326" d="M404.587,283.768l-3.632.956L400,281.156l3.632-.956Z" transform="translate(-319.02 -276.951)" fill="#fff" opacity="0.4"/>
        <path id="Path_5327" data-name="Path 5327" d="M407.324,294.268l-3.568.956-.956-3.568,3.632-.956Z" transform="translate(-320.036 -280.761)" fill="#fff" opacity="0.4"/>
        <path id="Path_5328" data-name="Path 5328" d="M415.833,281.332l-3.632.7-.7-3.568,3.632-.764Z" transform="translate(-323.193 -276.043)" fill="#fff" opacity="0.4"/>
        <path id="Path_5329" data-name="Path 5329" d="M417.933,292.032l-3.632.7-.7-3.632,3.632-.7Z" transform="translate(-323.955 -279.926)" fill="#fff" opacity="0.4"/>
        <path id="Path_5330" data-name="Path 5330" d="M427.305,279.732l-3.7.446-.51-3.632,3.7-.446Z" transform="translate(-327.402 -275.463)" fill="#fff" opacity="0.4"/>
        <path id="Path_5331" data-name="Path 5331" d="M428.641,290.532l-3.7.446-.446-3.632,3.7-.446Z" transform="translate(-327.91 -279.382)" fill="#fff" opacity="0.4"/>
        <path id="Path_5332" data-name="Path 5332" d="M438.85,278.9l-3.759.191-.191-3.7,3.7-.191Z" transform="translate(-331.684 -275.136)" fill="#fff" opacity="0.4"/>
        <path id="Path_5333" data-name="Path 5333" d="M439.45,289.7l-3.7.255-.255-3.7,3.7-.255Z" transform="translate(-331.901 -279.055)" fill="#fff" opacity="0.4"/>
        <path id="Path_5334" data-name="Path 5334" d="M450.4,278.8l-3.7-.064V275.1h3.759Z" transform="translate(-335.965 -275.1)" fill="#fff" opacity="0.4"/>
        <path id="Path_5335" data-name="Path 5335" d="M450.232,289.659,446.6,289.6v-3.7l3.7.064Z" transform="translate(-335.929 -279.019)" fill="#fff" opacity="0.4"/>
        <path id="Path_5336" data-name="Path 5336" d="M461.8,279.35l-3.7-.255.255-3.7,3.759.255Z" transform="translate(-340.102 -275.209)" fill="#fff" opacity="0.4"/>
        <path id="Path_5337" data-name="Path 5337" d="M460.9,290.214l-3.7-.319.319-3.7,3.7.319Z" transform="translate(-339.776 -279.128)" fill="#fff" opacity="0.4"/>
        <path id="Path_5338" data-name="Path 5338" d="M473.132,280.705l-3.632-.51.51-3.7,3.7.573Z" transform="translate(-344.239 -275.608)" fill="#fff" opacity="0.4"/>
        <path id="Path_5339" data-name="Path 5339" d="M471.532,291.505l-3.632-.573.51-3.632,3.7.51Z" transform="translate(-343.658 -279.527)" fill="#fff" opacity="0.4"/>
        <path id="Path_5340" data-name="Path 5340" d="M484.332,282.8l-3.632-.765.765-3.632,3.7.828Z" transform="translate(-348.303 -276.297)" fill="#fff" opacity="0.4"/>
        <path id="Path_5341" data-name="Path 5341" d="M482.032,293.5l-3.632-.828.828-3.568,3.568.765Z" transform="translate(-347.468 -280.18)" fill="#fff" opacity="0.4"/>
        <path id="Path_5342" data-name="Path 5342" d="M495.432,285.687l-3.632-1.019,1.019-3.568,3.632,1.019Z" transform="translate(-352.33 -277.277)" fill="#fff" opacity="0.4"/>
        <path id="Path_5343" data-name="Path 5343" d="M492.4,296.124l-3.5-.956,1.019-3.568,3.5,1.019Z" transform="translate(-351.278 -281.087)" fill="#fff" opacity="0.4"/>
        <path id="Path_5344" data-name="Path 5344" d="M506.3,289.315l-3.5-1.274,1.211-3.441,3.5,1.274Z" transform="translate(-356.322 -278.547)" fill="#fff" opacity="0.4"/>
        <path id="Path_5345" data-name="Path 5345" d="M502.541,299.515,499.1,298.3l1.274-3.5,3.44,1.274Z" transform="translate(-354.979 -282.248)" fill="#fff" opacity="0.4"/>
        <path id="Path_5346" data-name="Path 5346" d="M516.877,293.642l-3.377-1.465,1.466-3.377,3.377,1.465Z" transform="translate(-360.205 -280.071)" fill="#fff" opacity="0.4"/>
        <path id="Path_5347" data-name="Path 5347" d="M512.477,303.606l-3.377-1.465,1.465-3.441,3.377,1.529Z" transform="translate(-358.608 -283.664)" fill="#fff" opacity="0.4"/>
        <path id="Path_5348" data-name="Path 5348" d="M527.113,298.733l-3.313-1.72,1.72-3.313,3.313,1.72Z" transform="translate(-363.942 -281.849)" fill="#fff" opacity="0.4"/>
        <path id="Path_5349" data-name="Path 5349" d="M522.113,308.37l-3.313-1.72,1.72-3.249,3.313,1.72Z" transform="translate(-362.128 -285.369)" fill="#fff" opacity="0.4"/>
        <g id="Group_8888" data-name="Group 8888" transform="translate(2.549 84.166)">
          <path id="Path_5350" data-name="Path 5350" d="M281.3,408.092l-.828,3.568-3.568-.828.828-3.632Z" transform="translate(-276.9 -407.2)" fill="#fff" opacity="0.4"/>
          <path id="Path_5351" data-name="Path 5351" d="M291.9,410.592l-.828,3.568-3.568-.828.828-3.632Z" transform="translate(-280.746 -408.107)" fill="#fff" opacity="0.4"/>
        </g>
        <g id="Group_8889" data-name="Group 8889" transform="translate(4.333 77.03)">
          <path id="Path_5352" data-name="Path 5352" d="M284.351,397.083l-1.083,3.568-3.568-1.083L280.783,396Z" transform="translate(-279.7 -396)" fill="#fff" opacity="0.4"/>
          <path id="Path_5353" data-name="Path 5353" d="M294.751,400.283l-1.083,3.568-3.568-1.083,1.083-3.568Z" transform="translate(-283.474 -397.161)" fill="#fff" opacity="0.4"/>
        </g>
        <g id="Group_8890" data-name="Group 8890" transform="translate(6.69 69.958)">
          <path id="Path_5354" data-name="Path 5354" d="M288.115,386.238l-1.274,3.441L283.4,388.4l1.274-3.5Z" transform="translate(-283.4 -384.9)" fill="#fff" opacity="0.4"/>
          <path id="Path_5355" data-name="Path 5355" d="M298.279,390.138l-1.338,3.441-3.441-1.338,1.338-3.441Z" transform="translate(-287.065 -386.315)" fill="#fff" opacity="0.4"/>
        </g>
        <g id="Group_8891" data-name="Group 8891" transform="translate(9.43 63.077)">
          <path id="Path_5356" data-name="Path 5356" d="M292.67,375.629l-1.593,3.377-3.377-1.529,1.593-3.377Z" transform="translate(-287.7 -374.1)" fill="#fff" opacity="0.4"/>
          <path id="Path_5357" data-name="Path 5357" d="M302.506,380.193l-1.529,3.313-3.377-1.529,1.593-3.377Z" transform="translate(-291.292 -375.733)" fill="#fff" opacity="0.4"/>
        </g>
        <g id="Group_8892" data-name="Group 8892" transform="translate(12.743 56.387)">
          <path id="Path_5358" data-name="Path 5358" d="M297.933,365.384l-1.784,3.249-3.249-1.784,1.784-3.249Z" transform="translate(-292.9 -363.6)" fill="#fff" opacity="0.4"/>
          <path id="Path_5359" data-name="Path 5359" d="M307.433,370.584l-1.784,3.249-3.249-1.784,1.784-3.249Z" transform="translate(-296.347 -365.487)" fill="#fff" opacity="0.4"/>
        </g>
        <g id="Group_8893" data-name="Group 8893" transform="translate(16.438 49.952)">
          <path id="Path_5360" data-name="Path 5360" d="M303.861,355.475l-2.039,3.186-3.122-1.975,2.039-3.186Z" transform="translate(-298.7 -353.5)" fill="#fff" opacity="0.4"/>
          <path id="Path_5361" data-name="Path 5361" d="M313,361.375l-1.975,3.122-3.122-1.975,1.975-3.122Z" transform="translate(-302.038 -355.641)" fill="#fff" opacity="0.4"/>
        </g>
        <g id="Group_8894" data-name="Group 8894" transform="translate(20.58 43.835)">
          <path id="Path_5362" data-name="Path 5362" d="M310.425,346.066l-2.23,2.995-2.995-2.166,2.23-2.995Z" transform="translate(-305.2 -343.9)" fill="#fff" opacity="0.4"/>
          <path id="Path_5363" data-name="Path 5363" d="M319.161,352.53l-2.166,2.995L314,353.295l2.23-2.995Z" transform="translate(-308.393 -346.222)" fill="#fff" opacity="0.4"/>
        </g>
        <g id="Group_8895" data-name="Group 8895" transform="translate(25.167 37.973)">
          <path id="Path_5364" data-name="Path 5364" d="M317.625,337.121l-2.357,2.8-2.867-2.357,2.421-2.867Z" transform="translate(-312.4 -334.7)" fill="#fff" opacity="0.4"/>
          <path id="Path_5365" data-name="Path 5365" d="M325.924,344.157l-2.357,2.8L320.7,344.6l2.421-2.8Z" transform="translate(-315.412 -337.276)" fill="#fff" opacity="0.4"/>
        </g>
        <g id="Group_8896" data-name="Group 8896" transform="translate(30.137 32.494)">
          <path id="Path_5366" data-name="Path 5366" d="M325.488,328.712l-2.612,2.612-2.676-2.549,2.612-2.676Z" transform="translate(-320.2 -326.1)" fill="#fff" opacity="0.4"/>
          <path id="Path_5367" data-name="Path 5367" d="M333.225,336.312l-2.549,2.612L328,336.376l2.612-2.676Z" transform="translate(-323.03 -328.858)" fill="#fff" opacity="0.4"/>
        </g>
        <g id="Group_8897" data-name="Group 8897" transform="translate(35.489 27.397)">
          <path id="Path_5368" data-name="Path 5368" d="M333.825,320.84l-2.74,2.485-2.485-2.74,2.8-2.485Z" transform="translate(-328.6 -318.1)" fill="#fff" opacity="0.4"/>
          <path id="Path_5369" data-name="Path 5369" d="M341.125,328.94l-2.74,2.485-2.485-2.8,2.74-2.421Z" transform="translate(-331.249 -321.039)" fill="#fff" opacity="0.4"/>
        </g>
        <g id="Group_8898" data-name="Group 8898" transform="translate(41.159 22.618)">
          <path id="Path_5370" data-name="Path 5370" d="M342.725,313.531l-2.931,2.294-2.294-2.931,2.931-2.294Z" transform="translate(-337.5 -310.6)" fill="#fff" opacity="0.4"/>
          <path id="Path_5371" data-name="Path 5371" d="M349.461,322.131l-2.931,2.23-2.23-2.867,2.867-2.294Z" transform="translate(-339.967 -313.721)" fill="#fff" opacity="0.4"/>
        </g>
        <g id="Group_8899" data-name="Group 8899" transform="translate(47.212 18.286)">
          <path id="Path_5372" data-name="Path 5372" d="M352.1,306.858l-3.058,2.1L347,305.9l3.058-2.1Z" transform="translate(-347 -303.8)" fill="#fff" opacity="0.4"/>
          <path id="Path_5373" data-name="Path 5373" d="M358.2,315.858l-2.995,2.1-2.1-3.058,3.058-2.1Z" transform="translate(-349.214 -307.066)" fill="#fff" opacity="0.4"/>
        </g>
        <g id="Group_8900" data-name="Group 8900" transform="translate(189.485 172.601)">
          <path id="Path_5374" data-name="Path 5374" d="M578.8,555.631l2.294-2.931,2.867,2.294-2.294,2.931Z" transform="translate(-573.384 -548.431)" fill="#fff" opacity="0.4"/>
          <path id="Path_5375" data-name="Path 5375" d="M570.3,548.867,572.53,546l2.931,2.23-2.294,2.931Z" transform="translate(-570.3 -546)" fill="#fff" opacity="0.4"/>
        </g>
        <g id="Group_8901" data-name="Group 8901" transform="translate(184.961 177.825)">
          <path id="Path_5376" data-name="Path 5376" d="M571.2,564.24l2.485-2.74,2.74,2.485-2.485,2.74Z" transform="translate(-566.103 -556.849)" fill="#fff" opacity="0.4"/>
          <path id="Path_5377" data-name="Path 5377" d="M563.2,556.94l2.485-2.74,2.74,2.485-2.485,2.74Z" transform="translate(-563.2 -554.2)" fill="#fff" opacity="0.4"/>
        </g>
        <g id="Group_8902" data-name="Group 8902" transform="translate(193.562 167.057)">
          <path id="Path_5378" data-name="Path 5378" d="M585.7,546.558l2.1-3.058,3.058,2.039-2.166,3.122Z" transform="translate(-579.966 -539.55)" fill="#fff" opacity="0.4"/>
          <path id="Path_5379" data-name="Path 5379" d="M576.7,540.358l2.1-3.058,3.058,2.1-2.1,3.058Z" transform="translate(-576.7 -537.3)" fill="#fff" opacity="0.4"/>
        </g>
        <g id="Group_8903" data-name="Group 8903" transform="translate(180.119 182.795)">
          <path id="Path_5380" data-name="Path 5380" d="M563.1,572.449l2.676-2.549,2.549,2.612-2.676,2.612Z" transform="translate(-558.321 -564.867)" fill="#fff" opacity="0.4"/>
          <path id="Path_5381" data-name="Path 5381" d="M555.6,564.549,558.276,562l2.549,2.676-2.676,2.549Z" transform="translate(-555.6 -562)" fill="#fff" opacity="0.4"/>
        </g>
        <g id="Group_8904" data-name="Group 8904" transform="translate(174.958 187.446)">
          <path id="Path_5382" data-name="Path 5382" d="M554.5,580.021l2.867-2.421,2.357,2.867-2.867,2.357Z" transform="translate(-550.04 -572.312)" fill="#fff" opacity="0.4"/>
          <path id="Path_5383" data-name="Path 5383" d="M547.5,571.657l2.8-2.357,2.421,2.867-2.867,2.357Z" transform="translate(-547.5 -569.3)" fill="#fff" opacity="0.4"/>
        </g>
        <g id="Group_8905" data-name="Group 8905" transform="translate(169.542 191.778)">
          <path id="Path_5384" data-name="Path 5384" d="M545.4,587.03l2.995-2.23,2.166,2.995-2.995,2.23Z" transform="translate(-541.322 -579.257)" fill="#fff" opacity="0.4"/>
          <path id="Path_5385" data-name="Path 5385" d="M539,578.266l2.995-2.166,2.166,2.995-2.995,2.166Z" transform="translate(-539 -576.1)" fill="#fff" opacity="0.4"/>
        </g>
        <g id="Group_8906" data-name="Group 8906" transform="translate(163.808 195.729)">
          <path id="Path_5386" data-name="Path 5386" d="M535.8,593.375l3.186-1.975,1.975,3.122-3.186,2.039Z" transform="translate(-532.105 -585.602)" fill="#fff" opacity="0.4"/>
          <path id="Path_5387" data-name="Path 5387" d="M530,584.275l3.122-1.975,1.975,3.058-3.122,2.039Z" transform="translate(-530 -582.3)" fill="#fff" opacity="0.4"/>
        </g>
        <g id="Group_8907" data-name="Group 8907" transform="translate(157.883 199.233)">
          <path id="Path_5388" data-name="Path 5388" d="M525.9,599.184l3.249-1.784,1.784,3.249-3.313,1.784Z" transform="translate(-522.587 -591.284)" fill="#fff" opacity="0.4"/>
          <path id="Path_5389" data-name="Path 5389" d="M520.7,589.584l3.249-1.784,1.784,3.249-3.249,1.784Z" transform="translate(-520.7 -587.8)" fill="#fff" opacity="0.4"/>
        </g>
        <g id="Group_8908" data-name="Group 8908" transform="translate(151.766 202.419)">
          <path id="Path_5390" data-name="Path 5390" d="M515.6,604.229l3.377-1.529,1.529,3.313-3.377,1.593Z" transform="translate(-512.733 -596.392)" fill="#fff" opacity="0.4"/>
          <path id="Path_5391" data-name="Path 5391" d="M511.1,594.329l3.313-1.529,1.529,3.377-3.313,1.529Z" transform="translate(-511.1 -592.8)" fill="#fff" opacity="0.4"/>
        </g>
        <g id="Group_8909" data-name="Group 8909" transform="translate(145.395 205.158)">
          <path id="Path_5392" data-name="Path 5392" d="M504.9,608.538l3.5-1.338,1.338,3.5-3.5,1.274Z" transform="translate(-502.479 -600.765)" fill="#fff" opacity="0.4"/>
          <path id="Path_5393" data-name="Path 5393" d="M501.1,598.374l3.441-1.274,1.338,3.441-3.441,1.338Z" transform="translate(-501.1 -597.1)" fill="#fff" opacity="0.4"/>
        </g>
        <g id="Group_8910" data-name="Group 8910" transform="translate(138.896 207.452)">
          <path id="Path_5394" data-name="Path 5394" d="M494.1,612.183l3.5-1.083,1.083,3.568-3.568,1.083Z" transform="translate(-492.061 -604.474)" fill="#fff" opacity="0.4"/>
          <path id="Path_5395" data-name="Path 5395" d="M490.9,601.783l3.568-1.083,1.083,3.568-3.568,1.083Z" transform="translate(-490.9 -600.7)" fill="#fff" opacity="0.4"/>
        </g>
        <g id="Group_8911" data-name="Group 8911" transform="translate(132.334 209.363)">
          <path id="Path_5396" data-name="Path 5396" d="M483,615.128l3.632-.828.828,3.568-3.632.828Z" transform="translate(-481.471 -607.546)" fill="#fff" opacity="0.4"/>
          <path id="Path_5397" data-name="Path 5397" d="M480.6,604.528l3.568-.828.828,3.568-3.632.828Z" transform="translate(-480.6 -603.7)" fill="#fff" opacity="0.4"/>
        </g>
        <g id="Group_8912" data-name="Group 8912" transform="translate(125.58 210.765)">
          <path id="Path_5398" data-name="Path 5398" d="M471.7,617.237l3.7-.637.573,3.7-3.7.573Z" transform="translate(-470.617 -609.783)" fill="#fff" opacity="0.4"/>
          <path id="Path_5399" data-name="Path 5399" d="M470,606.473l3.632-.573.637,3.631-3.7.637Z" transform="translate(-470 -605.9)" fill="#fff" opacity="0.4"/>
        </g>
        <g id="Group_8913" data-name="Group 8913" transform="translate(118.826 211.785)">
          <path id="Path_5400" data-name="Path 5400" d="M460.4,618.619l3.7-.319.319,3.632-3.7.382Z" transform="translate(-459.763 -611.419)" fill="#fff" opacity="0.4"/>
          <path id="Path_5401" data-name="Path 5401" d="M459.4,607.818l3.632-.318.382,3.632-3.7.382Z" transform="translate(-459.4 -607.5)" fill="#fff" opacity="0.4"/>
        </g>
        <g id="Group_8914" data-name="Group 8914" transform="translate(112.009 212.294)">
          <path id="Path_5402" data-name="Path 5402" d="M448.9,619.227l3.759-.127.064,3.7-3.759.127Z" transform="translate(-448.773 -612.219)" fill="#fff" opacity="0.4"/>
          <path id="Path_5403" data-name="Path 5403" d="M448.7,608.364l3.7-.064.064,3.7-3.7.064Z" transform="translate(-448.7 -608.3)" fill="#fff" opacity="0.4"/>
        </g>
        <g id="Group_8915" data-name="Group 8915" transform="translate(104.809 212.167)">
          <path id="Path_5404" data-name="Path 5404" d="M437.591,618.9l3.632.191-.127,3.7-3.7-.191Z" transform="translate(-437.4 -612.019)" fill="#fff" opacity="0.4"/>
          <path id="Path_5405" data-name="Path 5405" d="M438.091,608.1l3.632.127-.127,3.7-3.7-.127Z" transform="translate(-437.581 -608.1)" fill="#fff" opacity="0.4"/>
        </g>
        <g id="Group_8916" data-name="Group 8916" transform="translate(97.227 211.466)">
          <path id="Path_5406" data-name="Path 5406" d="M425.882,617.8l3.7.446-.382,3.7-3.7-.446Z" transform="translate(-425.5 -610.919)" fill="#fff" opacity="0.4"/>
          <path id="Path_5407" data-name="Path 5407" d="M427.146,607l3.632.446-.382,3.632-3.7-.382Z" transform="translate(-425.935 -607)" fill="#fff" opacity="0.4"/>
        </g>
        <g id="Group_8917" data-name="Group 8917" transform="translate(89.773 210.383)">
          <path id="Path_5408" data-name="Path 5408" d="M414.5,616l3.632.637-.637,3.632-3.7-.637Z" transform="translate(-413.8 -609.183)" fill="#fff" opacity="0.4"/>
          <path id="Path_5409" data-name="Path 5409" d="M416.437,605.3l3.632.637-.637,3.632-3.632-.637Z" transform="translate(-414.526 -605.3)" fill="#fff" opacity="0.4"/>
        </g>
        <g id="Group_8918" data-name="Group 8918" transform="translate(82.446 208.79)">
          <path id="Path_5410" data-name="Path 5410" d="M403.192,613.4l3.632.892-.892,3.568-3.632-.892Z" transform="translate(-402.3 -606.646)" fill="#fff" opacity="0.4"/>
          <path id="Path_5411" data-name="Path 5411" d="M405.892,602.8l3.568.892-.892,3.632L405,606.432Z" transform="translate(-403.28 -602.8)" fill="#fff" opacity="0.4"/>
        </g>
        <g id="Group_8919" data-name="Group 8919" transform="translate(75.246 206.815)">
          <path id="Path_5412" data-name="Path 5412" d="M392.147,610l3.568,1.147-1.147,3.568L391,613.5Z" transform="translate(-391 -603.437)" fill="#fff" opacity="0.4"/>
          <path id="Path_5413" data-name="Path 5413" d="M395.547,599.7l3.5,1.147-1.147,3.5-3.5-1.147Z" transform="translate(-392.234 -599.7)" fill="#fff" opacity="0.4"/>
        </g>
        <g id="Group_8920" data-name="Group 8920" transform="translate(68.237 204.394)">
          <path id="Path_5414" data-name="Path 5414" d="M381.338,606l3.441,1.338-1.338,3.44-3.441-1.4Z" transform="translate(-380 -599.565)" fill="#fff" opacity="0.4"/>
          <path id="Path_5415" data-name="Path 5415" d="M385.4,595.9l3.44,1.338-1.4,3.441L384,599.341Z" transform="translate(-381.451 -595.9)" fill="#fff" opacity="0.4"/>
        </g>
        <g id="Group_8921" data-name="Group 8921" transform="translate(61.356 201.527)">
          <path id="Path_5416" data-name="Path 5416" d="M370.793,601.2l3.377,1.593-1.593,3.313-3.377-1.593Z" transform="translate(-369.2 -594.956)" fill="#fff" opacity="0.4"/>
          <path id="Path_5417" data-name="Path 5417" d="M375.593,591.4l3.313,1.593-1.593,3.313L374,594.713Z" transform="translate(-370.942 -591.4)" fill="#fff" opacity="0.4"/>
        </g>
        <g id="Group_8922" data-name="Group 8922" transform="translate(54.73 198.277)">
          <path id="Path_5418" data-name="Path 5418" d="M360.648,595.7l3.249,1.848-1.848,3.186-3.249-1.848Z" transform="translate(-358.8 -589.711)" fill="#fff" opacity="0.4"/>
          <path id="Path_5419" data-name="Path 5419" d="M366.048,586.3l3.186,1.784-1.784,3.249-3.249-1.848Z" transform="translate(-360.759 -586.3)" fill="#fff" opacity="0.4"/>
        </g>
        <g id="Group_8923" data-name="Group 8923" transform="translate(48.422 194.582)">
          <path id="Path_5420" data-name="Path 5420" d="M350.939,589.6,354,591.639l-2.039,3.058-3.058-2.039Z" transform="translate(-348.9 -583.802)" fill="#fff" opacity="0.4"/>
          <path id="Path_5421" data-name="Path 5421" d="M356.939,580.5,360,582.539l-2.039,3.058-3.058-2.039Z" transform="translate(-351.077 -580.5)" fill="#fff" opacity="0.4"/>
        </g>
        <g id="Group_8924" data-name="Group 8924" transform="translate(42.306 190.504)">
          <path id="Path_5422" data-name="Path 5422" d="M341.594,582.8l2.931,2.23-2.23,2.931-2.995-2.23Z" transform="translate(-339.3 -577.257)" fill="#fff" opacity="0.4"/>
          <path id="Path_5423" data-name="Path 5423" d="M348.23,574.1l2.931,2.294-2.23,2.931L346,577.031Z" transform="translate(-341.731 -574.1)" fill="#fff" opacity="0.4"/>
        </g>
        <g id="Group_8925" data-name="Group 8925" transform="translate(36.572 186.108)">
          <path id="Path_5424" data-name="Path 5424" d="M332.785,575.4l2.74,2.421-2.421,2.8-2.8-2.485Z" transform="translate(-330.3 -570.175)" fill="#fff" opacity="0.4"/>
          <path id="Path_5425" data-name="Path 5425" d="M339.921,567.2l2.8,2.421-2.421,2.8L337.5,570Z" transform="translate(-332.913 -567.2)" fill="#fff" opacity="0.4"/>
        </g>
        <g id="Group_8926" data-name="Group 8926" transform="translate(31.156 181.393)">
          <path id="Path_5426" data-name="Path 5426" d="M324.476,567.4l2.612,2.612-2.612,2.612-2.676-2.612Z" transform="translate(-321.8 -562.558)" fill="#fff" opacity="0.4"/>
          <path id="Path_5427" data-name="Path 5427" d="M332.212,559.8l2.612,2.612-2.612,2.612-2.612-2.676Z" transform="translate(-324.63 -559.8)" fill="#fff" opacity="0.4"/>
        </g>
        <g id="Group_8927" data-name="Group 8927" transform="translate(26.123 176.296)">
          <path id="Path_5428" data-name="Path 5428" d="M316.7,558.9l2.485,2.8-2.8,2.421-2.485-2.8Z" transform="translate(-313.9 -554.376)" fill="#fff" opacity="0.4"/>
          <path id="Path_5429" data-name="Path 5429" d="M325,551.8l2.357,2.8-2.74,2.421-2.421-2.8Z" transform="translate(-316.912 -551.8)" fill="#fff" opacity="0.4"/>
        </g>
        <g id="Group_8928" data-name="Group 8928" transform="translate(21.535 170.944)">
          <path id="Path_5430" data-name="Path 5430" d="M309.631,549.9l2.23,2.995-2.931,2.23-2.23-2.995Z" transform="translate(-306.7 -545.759)" fill="#fff" opacity="0.4"/>
          <path id="Path_5431" data-name="Path 5431" d="M318.295,543.4l2.23,2.931-2.995,2.23-2.23-2.931Z" transform="translate(-309.821 -543.4)" fill="#fff" opacity="0.4"/>
        </g>
        <g id="Group_8929" data-name="Group 8929" transform="translate(17.266 165.273)">
          <path id="Path_5432" data-name="Path 5432" d="M303.122,540.5l2.039,3.058-3.122,2.039L300,542.475Z" transform="translate(-300 -536.677)" fill="#fff" opacity="0.4"/>
          <path id="Path_5433" data-name="Path 5433" d="M312.222,534.5l1.975,3.122-3.058,1.975-2.039-3.058Z" transform="translate(-303.302 -534.5)" fill="#fff" opacity="0.4"/>
        </g>
        <g id="Group_8930" data-name="Group 8930" transform="translate(13.444 159.412)">
          <path id="Path_5434" data-name="Path 5434" d="M297.249,530.6l1.784,3.25-3.186,1.784L294,532.384Z" transform="translate(-294 -527.223)" fill="#fff" opacity="0.4"/>
          <path id="Path_5435" data-name="Path 5435" d="M306.749,525.3l1.784,3.186-3.186,1.848-1.848-3.249Z" transform="translate(-297.447 -525.3)" fill="#fff" opacity="0.4"/>
        </g>
        <g id="Group_8931" data-name="Group 8931" transform="translate(10.067 153.295)">
          <path id="Path_5436" data-name="Path 5436" d="M292.077,520.4l1.593,3.313-3.313,1.656-1.656-3.377Z" transform="translate(-288.7 -517.405)" fill="#fff" opacity="0.4"/>
          <path id="Path_5437" data-name="Path 5437" d="M301.913,515.7l1.593,3.313-3.313,1.593-1.593-3.313Z" transform="translate(-292.292 -515.7)" fill="#fff" opacity="0.4"/>
        </g>
        <g id="Group_8932" data-name="Group 8932" transform="translate(7.2 146.988)">
          <path id="Path_5438" data-name="Path 5438" d="M287.641,509.8l1.338,3.5-3.377,1.338-1.4-3.441Z" transform="translate(-284.2 -507.251)" fill="#fff" opacity="0.4"/>
          <path id="Path_5439" data-name="Path 5439" d="M297.741,505.8l1.338,3.441-3.441,1.4L294.3,507.2Z" transform="translate(-287.865 -505.8)" fill="#fff" opacity="0.4"/>
        </g>
        <g id="Group_8933" data-name="Group 8933" transform="translate(4.779 140.553)">
          <path id="Path_5440" data-name="Path 5440" d="M283.9,499l1.147,3.568-3.5,1.147-1.147-3.568Z" transform="translate(-280.4 -496.897)" fill="#fff" opacity="0.4"/>
          <path id="Path_5441" data-name="Path 5441" d="M294.2,495.7l1.147,3.5-3.5,1.147-1.147-3.5Z" transform="translate(-284.138 -495.7)" fill="#fff" opacity="0.4"/>
        </g>
        <g id="Group_8934" data-name="Group 8934" transform="translate(2.803 133.99)">
          <path id="Path_5442" data-name="Path 5442" d="M280.868,488l.956,3.568-3.632.892-.892-3.568Z" transform="translate(-277.3 -486.343)" fill="#fff" opacity="0.4"/>
          <path id="Path_5443" data-name="Path 5443" d="M291.468,485.4l.892,3.568-3.568.892-.892-3.568Z" transform="translate(-281.146 -485.4)" fill="#fff" opacity="0.4"/>
        </g>
        <g id="Group_8935" data-name="Group 8935" transform="translate(1.338 127.3)">
          <path id="Path_5444" data-name="Path 5444" d="M278.7,476.8l.637,3.632-3.632.637-.7-3.632Z" transform="translate(-275 -475.589)" fill="#fff" opacity="0.4"/>
          <path id="Path_5445" data-name="Path 5445" d="M289.4,474.9l.637,3.632-3.632.637-.7-3.632Z" transform="translate(-278.883 -474.9)" fill="#fff" opacity="0.4"/>
        </g>
        <g id="Group_8936" data-name="Group 8936" transform="translate(0.446 120.546)">
          <path id="Path_5446" data-name="Path 5446" d="M277.232,465.4l.446,3.7-3.7.446-.382-3.759Z" transform="translate(-273.6 -464.699)" fill="#fff" opacity="0.4"/>
          <path id="Path_5447" data-name="Path 5447" d="M288.032,464.3l.446,3.632-3.7.446-.382-3.7Z" transform="translate(-277.519 -464.3)" fill="#fff" opacity="0.4"/>
        </g>
        <g id="Group_8937" data-name="Group 8937" transform="translate(0 113.729)">
          <path id="Path_5448" data-name="Path 5448" d="M276.6,454l.127,3.7-3.7.191-.127-3.759Z" transform="translate(-272.9 -453.745)" fill="#fff" opacity="0.4"/>
          <path id="Path_5449" data-name="Path 5449" d="M287.432,453.6l.191,3.7-3.7.127-.127-3.7Z" transform="translate(-276.855 -453.6)" fill="#fff" opacity="0.4"/>
        </g>
        <g id="Group_8938" data-name="Group 8938" transform="translate(0 106.593)">
          <path id="Path_5450" data-name="Path 5450" d="M276.659,442.527l-.127,3.7-3.632-.064.064-3.759Z" transform="translate(-272.9 -442.4)" fill="#fff" opacity="0.4"/>
          <path id="Path_5451" data-name="Path 5451" d="M287.523,442.827l-.127,3.7-3.7-.127.127-3.7Z" transform="translate(-276.819 -442.509)" fill="#fff" opacity="0.4"/>
        </g>
        <g id="Group_8939" data-name="Group 8939" transform="translate(0.319 99.075)">
          <path id="Path_5452" data-name="Path 5452" d="M277.414,430.982l-.319,3.7-3.7-.382.319-3.7Z" transform="translate(-273.4 -430.6)" fill="#fff" opacity="0.4"/>
          <path id="Path_5453" data-name="Path 5453" d="M288.214,432.019l-.319,3.7-3.7-.319.382-3.7Z" transform="translate(-277.319 -430.999)" fill="#fff" opacity="0.4"/>
        </g>
        <g id="Group_8940" data-name="Group 8940" transform="translate(1.147 91.62)">
          <path id="Path_5454" data-name="Path 5454" d="M278.969,419.537l-.637,3.632L274.7,422.6l.637-3.7Z" transform="translate(-274.7 -418.9)" fill="#fff" opacity="0.4"/>
          <path id="Path_5455" data-name="Path 5455" d="M289.669,421.337l-.573,3.632-3.7-.637.637-3.632Z" transform="translate(-278.583 -419.553)" fill="#fff" opacity="0.4"/>
        </g>
      </g>
    </g>
    <g id="Group_8975" data-name="Group 8975" transform="translate(22.427 22.236)">
      <g id="Group_8943" data-name="Group 8943" transform="translate(0 0)" clip-path="url(#clip-path)">
        <line id="Line_138" data-name="Line 138" x1="30.837" y2="285.438" transform="translate(58.68 89.518)" fill="none" stroke="#fff" stroke-miterlimit="10" stroke-width="1" opacity="0.15"/>
      </g>
      <g id="Group_8944" data-name="Group 8944" transform="translate(0 0)" clip-path="url(#clip-path)">
        <line id="Line_139" data-name="Line 139" x1="13.89" y2="286.776" transform="translate(75.628 89.518)" fill="none" stroke="#fff" stroke-miterlimit="10" stroke-width="1" opacity="0.15"/>
      </g>
      <g id="Group_8945" data-name="Group 8945" transform="translate(0 0)" clip-path="url(#clip-path)">
        <line id="Line_140" data-name="Line 140" x2="5.352" y2="287.03" transform="translate(89.518 89.518)" fill="none" stroke="#fff" stroke-miterlimit="10" stroke-width="1" opacity="0.15"/>
      </g>
      <g id="Group_8946" data-name="Group 8946" transform="translate(0 0)" clip-path="url(#clip-path)">
        <line id="Line_141" data-name="Line 141" x2="27.588" y2="285.756" transform="translate(89.518 89.518)" fill="none" stroke="#fff" stroke-miterlimit="10" stroke-width="1" opacity="0.15"/>
      </g>
      <g id="Group_8947" data-name="Group 8947" transform="translate(0 0)" clip-path="url(#clip-path)">
        <line id="Line_142" data-name="Line 142" x2="53.647" y2="282.061" transform="translate(89.518 89.518)" fill="none" stroke="#fff" stroke-miterlimit="10" stroke-width="1" opacity="0.15"/>
      </g>
      <g id="Group_8948" data-name="Group 8948" transform="translate(0 0)" clip-path="url(#clip-path)">
        <line id="Line_143" data-name="Line 143" x2="84.867" y2="274.288" transform="translate(89.518 89.518)" fill="none" stroke="#fff" stroke-miterlimit="10" stroke-width="1" opacity="0.15"/>
      </g>
      <g id="Group_8949" data-name="Group 8949" transform="translate(0 0)" clip-path="url(#clip-path)">
        <line id="Line_144" data-name="Line 144" x2="123.541" y2="259.188" transform="translate(89.518 89.518)" fill="none" stroke="#fff" stroke-miterlimit="10" stroke-width="1" opacity="0.15"/>
      </g>
      <g id="Group_8950" data-name="Group 8950" transform="translate(0 0)" clip-path="url(#clip-path)">
        <line id="Line_145" data-name="Line 145" x2="173.493" y2="228.796" transform="translate(89.518 89.518)" fill="none" stroke="#fff" stroke-miterlimit="10" stroke-width="1" opacity="0.15"/>
      </g>
      <g id="Group_8951" data-name="Group 8951" transform="translate(0 0)" clip-path="url(#clip-path)">
        <line id="Line_146" data-name="Line 146" x1="273.842" y2="86.268" transform="translate(-184.324 89.518)" fill="none" stroke="#fff" stroke-miterlimit="10" stroke-width="1" opacity="0.15"/>
      </g>
      <g id="Group_8952" data-name="Group 8952" transform="translate(0 0)" clip-path="url(#clip-path)">
        <line id="Line_147" data-name="Line 147" x1="268.235" y2="102.324" transform="translate(-178.717 89.518)" fill="none" stroke="#fff" stroke-miterlimit="10" stroke-width="1" opacity="0.15"/>
      </g>
      <g id="Group_8953" data-name="Group 8953" transform="translate(0 0)" clip-path="url(#clip-path)">
        <line id="Line_148" data-name="Line 148" x1="260.78" y2="120.1" transform="translate(-171.263 89.518)" fill="none" stroke="#fff" stroke-miterlimit="10" stroke-width="1" opacity="0.15"/>
      </g>
      <g id="Group_8954" data-name="Group 8954" transform="translate(0 0)" clip-path="url(#clip-path)">
        <line id="Line_149" data-name="Line 149" x1="250.714" y2="139.915" transform="translate(-161.196 89.518)" fill="none" stroke="#fff" stroke-miterlimit="10" stroke-width="1" opacity="0.15"/>
      </g>
      <g id="Group_8955" data-name="Group 8955" transform="translate(0 0)" clip-path="url(#clip-path)">
        <line id="Line_150" data-name="Line 150" x1="236.824" y2="162.279" transform="translate(-147.306 89.518)" fill="none" stroke="#fff" stroke-miterlimit="10" stroke-width="1" opacity="0.15"/>
      </g>
      <g id="Group_8956" data-name="Group 8956" transform="translate(0 0)" clip-path="url(#clip-path)">
        <line id="Line_151" data-name="Line 151" x1="217.2" y2="187.764" transform="translate(-127.682 89.518)" fill="none" stroke="#fff" stroke-miterlimit="10" stroke-width="1" opacity="0.15"/>
      </g>
      <g id="Group_8957" data-name="Group 8957" transform="translate(0 0)" clip-path="url(#clip-path)">
        <line id="Line_152" data-name="Line 152" x1="187.828" y2="217.136" transform="translate(-98.31 89.518)" fill="none" stroke="#fff" stroke-miterlimit="10" stroke-width="1" opacity="0.15"/>
      </g>
      <g id="Group_8958" data-name="Group 8958" transform="translate(0 0)" clip-path="url(#clip-path)">
        <line id="Line_153" data-name="Line 153" x1="139.979" y2="250.65" transform="translate(-50.461 89.518)" fill="none" stroke="#fff" stroke-miterlimit="10" stroke-width="1" opacity="0.15"/>
      </g>
      <g id="Group_8959" data-name="Group 8959" transform="translate(0 0)" clip-path="url(#clip-path)">
        <line id="Line_154" data-name="Line 154" x1="188.911" y1="216.244" transform="translate(-99.393 -126.727)" fill="none" stroke="#fff" stroke-miterlimit="10" stroke-width="1" opacity="0.15"/>
      </g>
      <g id="Group_8960" data-name="Group 8960" transform="translate(0 0)" clip-path="url(#clip-path)">
        <line id="Line_155" data-name="Line 155" x1="201.399" y1="204.712" transform="translate(-111.881 -115.194)" fill="none" stroke="#fff" stroke-miterlimit="10" stroke-width="1" opacity="0.15"/>
      </g>
      <g id="Group_8961" data-name="Group 8961" transform="translate(0 0)" clip-path="url(#clip-path)">
        <line id="Line_156" data-name="Line 156" x1="214.652" y1="190.695" transform="translate(-125.134 -101.177)" fill="none" stroke="#fff" stroke-miterlimit="10" stroke-width="1" opacity="0.15"/>
      </g>
      <g id="Group_8962" data-name="Group 8962" transform="translate(0 0)" clip-path="url(#clip-path)">
        <line id="Line_157" data-name="Line 157" x1="228.796" y1="173.493" transform="translate(-139.278 -83.975)" fill="none" stroke="#fff" stroke-miterlimit="10" stroke-width="1" opacity="0.15"/>
      </g>
      <g id="Group_8963" data-name="Group 8963" transform="translate(0 0)" clip-path="url(#clip-path)">
        <line id="Line_158" data-name="Line 158" x1="243.705" y1="151.83" transform="translate(-154.187 -62.312)" fill="none" stroke="#fff" stroke-miterlimit="10" stroke-width="1" opacity="0.15"/>
      </g>
      <g id="Group_8964" data-name="Group 8964" transform="translate(0 0)" clip-path="url(#clip-path)">
        <line id="Line_159" data-name="Line 159" x1="259.188" y1="123.605" transform="translate(-169.67 -34.087)" fill="none" stroke="#fff" stroke-miterlimit="10" stroke-width="1" opacity="0.15"/>
      </g>
      <g id="Group_8965" data-name="Group 8965" transform="translate(0 0)" clip-path="url(#clip-path)">
        <line id="Line_160" data-name="Line 160" x1="274.288" y1="84.93" transform="translate(-184.77 4.587)" fill="none" stroke="#fff" stroke-miterlimit="10" stroke-width="1" opacity="0.15"/>
      </g>
      <g id="Group_8966" data-name="Group 8966" transform="translate(0 0)" clip-path="url(#clip-path)">
        <line id="Line_161" data-name="Line 161" x1="285.82" y1="27.652" transform="translate(-196.302 61.866)" fill="none" stroke="#fff" stroke-miterlimit="10" stroke-width="1" opacity="0.15"/>
      </g>
      <g id="Group_8967" data-name="Group 8967" transform="translate(0 0)" clip-path="url(#clip-path)">
        <line id="Line_162" data-name="Line 162" y1="259.825" x2="122.267" transform="translate(89.518 -170.307)" fill="none" stroke="#fff" stroke-miterlimit="10" stroke-width="1" opacity="0.15"/>
      </g>
      <g id="Group_8968" data-name="Group 8968" transform="translate(0 0)" clip-path="url(#clip-path)">
        <line id="Line_163" data-name="Line 163" y1="266.642" x2="106.657" transform="translate(89.518 -177.124)" fill="none" stroke="#fff" stroke-miterlimit="10" stroke-width="1" opacity="0.15"/>
      </g>
      <g id="Group_8969" data-name="Group 8969" transform="translate(0 0)" clip-path="url(#clip-path)">
        <line id="Line_164" data-name="Line 164" y1="273.205" x2="88.498" transform="translate(89.518 -183.687)" fill="none" stroke="#fff" stroke-miterlimit="10" stroke-width="1" opacity="0.15"/>
      </g>
      <g id="Group_8970" data-name="Group 8970" transform="translate(0 0)" clip-path="url(#clip-path)">
        <line id="Line_165" data-name="Line 165" y1="279.194" x2="67.091" transform="translate(89.518 -189.676)" fill="none" stroke="#fff" stroke-miterlimit="10" stroke-width="1" opacity="0.15"/>
      </g>
      <g id="Group_8971" data-name="Group 8971" transform="translate(0 0)" clip-path="url(#clip-path)">
        <line id="Line_166" data-name="Line 166" y1="284.163" x2="41.287" transform="translate(89.518 -194.646)" fill="none" stroke="#fff" stroke-miterlimit="10" stroke-width="1" opacity="0.15"/>
      </g>
      <g id="Group_8972" data-name="Group 8972" transform="translate(0 0)" clip-path="url(#clip-path)">
        <line id="Line_167" data-name="Line 167" y1="287.03" x2="9.175" transform="translate(89.518 -197.513)" fill="none" stroke="#fff" stroke-miterlimit="10" stroke-width="1" opacity="0.15"/>
      </g>
      <g id="Group_8973" data-name="Group 8973" transform="translate(0 0)" clip-path="url(#clip-path)">
        <line id="Line_168" data-name="Line 168" x1="32.303" y1="285.374" transform="translate(57.215 -195.856)" fill="none" stroke="#fff" stroke-miterlimit="10" stroke-width="1" opacity="0.15"/>
      </g>
      <g id="Group_8974" data-name="Group 8974" transform="translate(0 0)" clip-path="url(#clip-path)">
        <line id="Line_169" data-name="Line 169" x1="89.39" y1="272.886" transform="translate(0.127 -183.368)" fill="none" stroke="#fff" stroke-miterlimit="10" stroke-width="1" opacity="0.15"/>
      </g>
    </g>
    <g id="Group_8981" data-name="Group 8981" transform="translate(22.427 22.236)">
      <g id="Group_8976" data-name="Group 8976" transform="translate(0)" clip-path="url(#clip-path-33)">
        <line id="Line_170" data-name="Line 170" x2="239.946" y2="157.692" transform="translate(89.518 89.518)" fill="none" stroke="#fff" stroke-miterlimit="10" stroke-width="1" opacity="0.4"/>
      </g>
      <g id="Group_8977" data-name="Group 8977" transform="translate(0)" clip-path="url(#clip-path-33)">
        <line id="Line_171" data-name="Line 171" x1="45.938" y2="283.399" transform="translate(43.58 89.518)" fill="none" stroke="#fff" stroke-miterlimit="10" stroke-width="1" opacity="0.4"/>
      </g>
      <g id="Group_8978" data-name="Group 8978" transform="translate(0)" clip-path="url(#clip-path-33)">
        <line id="Line_172" data-name="Line 172" x1="278.047" y2="71.614" transform="translate(-188.529 89.518)" fill="none" stroke="#fff" stroke-miterlimit="10" stroke-width="1" opacity="0.4"/>
      </g>
      <g id="Group_8979" data-name="Group 8979" transform="translate(0 0)" clip-path="url(#clip-path-33)">
        <line id="Line_173" data-name="Line 173" x1="177.188" y1="225.929" transform="translate(-87.67 -136.411)" fill="none" stroke="#fff" stroke-miterlimit="10" stroke-width="1" opacity="0.4"/>
      </g>
      <g id="Group_8980" data-name="Group 8980" transform="translate(0 0)" clip-path="url(#clip-path-33)">
        <line id="Line_174" data-name="Line 174" y1="253.007" x2="135.838" transform="translate(89.518 -163.489)" fill="none" stroke="#fff" stroke-miterlimit="10" stroke-width="1" opacity="0.4"/>
      </g>
    </g>
  </g>
</svg>
